<?xml version="1.0" encoding="utf-8"?>
<!-- Generator: Adobe Illustrator 19.0.0, SVG Export Plug-In . SVG Version: 6.00 Build 0)  -->
<svg xmlns="http://www.w3.org/2000/svg" xmlns:xlink="http://www.w3.org/1999/xlink" version="1.1" id="Layer_1" x="0px" y="0px" viewBox="0 0 1400 980" style="enable-background:new 0 0 1400 980;" xml:space="preserve">
<style type="text/css">
	.st0{fill:none;}
	.st1{fill:none;stroke:#000000;stroke-width:0;stroke-linecap:round;stroke-linejoin:round;}
	.st2{fill:#F2D1B6;}
	.st3{fill:url(#New_Pattern_Swatch_13);}
</style>
<pattern width="878" height="353" patternUnits="userSpaceOnUse" id="New_Pattern_Swatch_13" viewBox="0 -355 878 353" style="overflow:visible;">
	<g>
		<polygon class="st0" points="0,-2 878,-2 878,-355 0,-355   "/>
		<path class="st0" d="M176-214.6c3.2-1.9,6.5-4.1,9-6.9c1.5-1.7,4.6-9.5-0.4-9.2c-2.4,0.2-4.7,1.9-5.9,3.9c-0.6,1-2,0.9-2.6,0    c-0.9-1.4-2-2.8-3.3-4c-1-0.9-3.1-2.7-4.4-1.1c-1.6,1.9-2.5,5-1.7,7.4C168.1-220.1,172-216.8,176-214.6z"/>
		<path class="st0" d="M347-313.4c1.3,1.4-0.8,3.5-2.1,2.1c-0.9-1-1.5-2.3-1.9-3.8c-2.5-0.2-4.9-0.2-7.3,0c0.2,0.9,0.5,1.9,1,2.8    c0.9,1.7-1.7,3.2-2.6,1.5c-0.7-1.3-1.1-2.7-1.3-4c-5.3,0.8-10.4,2.7-14.9,5.9c7.2,0.5,14.5,1,21.7,1.3c7.3,0.3,14.4-0.8,21.4-2.5    c-4.6-2.2-9.6-3.8-14.7-4.6C346.3-314.3,346.6-313.8,347-313.4z"/>
		<path class="st0" d="M140.7-243.2c50.7,3.6,101.4,6.9,152,11.6c24.4,2.3,48.8,5.5,73.3,5.5c8.1,0,16.3,0,24.3,1.5    c2.8,0.5,6.2,0.9,4.3,4.3c-2,3.6-8.7,4.4-12.4,4.2c-11.2-0.5-22.4-2.3-33.5-3.6c-18.3-2-36.5-4.1-54.8-6.3    c-0.7-0.1-1.6,0.8-1.5,1.5c0.7,5.6-0.2,11.7-2.7,16.8c-3.7,7.5-11.2,9.1-18.7,9.6c-16.9,1-34.1-0.6-51-2.1    c-10.5-0.9-21.1-1.9-31.6-3.2c-13.2-1.6-26.4-1.6-38.7-7.5C138.2-216.3,135.8-232,140.7-243.2z M249.5-205.1    C249.5-205.1,249.5-205.1,249.5-205.1c0.4,0.4,0.9,0.5,1.5,0.4c7.2-2,15-7.2,14.5-15.5c-0.6-9.4-8.2-7.4-13.2-3    c-3.2-4.9-10.4-7.6-12.9-0.3C236.9-216.2,244.4-209.3,249.5-205.1z M211.9-208.4c0.4,0.3,0.8,0.3,1.2,0.1c0.1,0,0.2-0.1,0.3-0.1    c5.3-2.6,14.5-7.3,14.7-14.1c0.1-3.7-2.9-8-6.7-8.3c-2.6-0.2-4.9,2.2-6.5,4.2c-3.4-3.6-9.3-9-12.4-3.1    C198.3-221.7,205.3-212.3,211.9-208.4z M175.4-211.6c0.5,0.2,1,0.2,1.4,0c0,0,0.1,0,0.1-0.1c5-2.8,14.4-8.3,13.5-15.1    c-1.1-7.9-8.5-8.2-12.8-3.2c-3.6-5.1-9.6-8.4-12.9-1.1C160.8-222.6,168.3-215,175.4-211.6z"/>
		<path class="st0" d="M307.2-158.7c-2.5,4.7-11.8,7.4-15.7,8c-2.7,0.5-6.4,0.6-9.2-0.7c0.3,0.9,0.9,1.8,1.4,2.7    c1,1.6,2.2,3.8,4.4,3.5c6.1-1,12.6-3,17.7-6.7C307.2-153.8,307.8-156.4,307.2-158.7z"/>
		<path class="st0" d="M289.6-142.4c5.3-0.9,10.8-2.6,15.5-5.4c0.1,0,0.2,0.1,0.3,0.1c3.2,0.1,6.5,3.6,8.6,5.6    c4.9,4.6,7.7,10.4,10,16.6c2.7,7.1,4.7,14.7,6.2,22.1c-8.4,5.6-18.5,9.2-28.6,10.2c-3.3-1.9-4.6-7.5-5.8-10.7    c-1.4-3.6-2.7-7.1-4-10.7C289.1-122.4,286.4-134.5,289.6-142.4z M299.4-128.1c0.4,1.3,1.5,2.6,2.8,3.1c2.9,1.2,6.6-1.3,8.9,1.7    c4.7,6.1-7.6,10-8.7,3.6c-0.3-1.9-3.2-1.1-2.9,0.8c1.3,7.5,13.5,7.2,15.5,0.4c1.1-3.9-1.8-8-5.2-9.4c-2.7-1.1-6.3,2.5-7.6-1.6    c-0.6-1.8-0.6-2.9,1.6-3.7c1.6-0.6,3,0.3,3.7,1.5c1,1.7,3.6,0.2,2.6-1.5c-1.8-3.1-5-3.7-8.2-2.5    C298.4-134.4,298.4-131.1,299.4-128.1z"/>
		<path class="st0" d="M304.8-161.8c-0.1-0.1-0.1-0.3-0.1-0.4c-0.3-0.2-0.6-0.4-0.9-0.5c-4-2-7.4,0.2-11.1,1.4    c-3.1,1-6.9,2.2-9.3,4.6c-0.5,0.5-0.8,1-1.1,1.5C286.8-149.2,306.6-157.6,304.8-161.8z"/>
		<path class="st0" d="M837.1-301.4c0.9-1.8,0.2-5.6-2.4-5.1c-1.2,0.2-3.7,1.2-4.2,2.4c0,0,0,0.1,0,0.1c-0.2,1.2-0.4,2.4-0.6,3.6    C832.3-299.8,836-299.2,837.1-301.4z"/>
		<path class="st0" d="M332.1-266c-1.5,2.9-3,5.8-4.5,8.7c11.4,1.1,23.4,0,34.3-3.5c-1.6-2.8-4.1-5.3-6.2-7.7    C348.3-265.9,340-265.2,332.1-266z"/>
		<path class="st0" d="M250.9-207.8c4.4-1.4,10.1-4.3,11.3-8.9c1-4.1-0.6-9.5-5.3-6.3c-1.4,1-2.7,2.1-3.9,3.3    c-0.8,0.9-2.1,0.3-2.5-0.7c-0.7-1.8-4.1-6.4-6.5-4.6c-3.5,2.6-2,6.8,0,9.6C245.9-212.5,248.3-210.1,250.9-207.8z"/>
		<path class="st0" d="M332.4-269.6c0.3,0.1,0.5,0.4,0.6,0.6c7.4,0.6,15,0,22-2.5c0.2-0.2,0.5-0.4,0.8-0.4c0.3-0.4,0.6-0.8,0.9-1.3    c1.1-1.8,2.2-3.6,3.1-5.4c2.5-4.6,3.9-9.4,4.4-14.6c0.5-4.9,0.6-9.9,0.3-14.8c-8.2,2.1-16.5,3.7-25,3.3    c-8.1-0.4-16.2-0.9-24.3-1.5C314.7-292.5,319-275.9,332.4-269.6z"/>
		<path class="st0" d="M212.7-211.3c3.6-1.8,7.3-4,10-6.9c1-1,2.8-2.8,2.3-4.5c-0.4-1.5-1.3-5.3-3.6-5c-2.3,0.2-4,2.5-5.1,4.3    c-0.6,1.1-1.9,0.8-2.6,0c-2.2-2.8-9.5-10.2-9.2-1.2C204.6-219,208.2-214.3,212.7-211.3z"/>
		<path class="st0" d="M190.7-108.4c0.6,10.4,7.8,19.8,12.7,28.5c2.8,4.9,5.6,9.9,8.3,14.9c2.3,4.1,2.6,8.4,2.6,13    c0.1,10.9-11.9,11.2-20.2,10.4c-5.9-0.6-11.6-2.6-17.3-3.9c-5.6-1.3-11.3-2.6-16.9-3.8c-9.3-2.1-18.6-4-27.8-6.2    c-5.2-1.3-10.4-3.1-15-5.9c-6.4-3.8-7.8-8.8-4.4-15.3c0.6-1.2,1.3-2.3,2.1-3.5c0.3-0.2,0.6-0.5,0.7-1c0,0,0,0,0-0.1    c6.3-8.8,16-15.3,23-23.3c1-1.1,1.9-2.4,2.9-3.6c0.2-0.1,0.3-0.3,0.4-0.5c1.3-1.7,2.5-3.5,3.7-5.3c0.6-0.2,1-0.8,1-1.4    c0.8-1.1,1.5-2.2,2.3-3.3C160.1-109.8,176.4-103.3,190.7-108.4z M170.2-87.7c-2,0-3.9,1.1-5.6,2.4c-1.8-4.1-7.7-7-10.5-2.2    c-3.7,6.4,1,12.8,6.4,16.4c0.3,0.2,0.5,0.2,0.8,0.2c2.2,0.4,5.4-1.4,7.1-2.3c3.1-1.5,6.9-4.1,7.3-7.8    C176-84.4,173.7-87.6,170.2-87.7z"/>
		<path class="st0" d="M167.8-83.8c-1.2,0.7-2.3,1.6-3.2,2.6c-1.1,1.1-2.8,0-2.5-1.5c0.3-1.6-1.9-4.1-3.4-4.3    c-3.9-0.5-3.2,5.9-2.1,7.7c1.3,2.1,3.1,4,5.2,5.4c0.9,0.1,3.5-1.1,4.4-1.6c2-0.9,4.2-2.1,5.6-3.8C174.1-82.4,171.4-86,167.8-83.8z    "/>
		<path class="st0" d="M133.9-104.1c-3.7-3.5-7.3-7-10.9-10.6c-4.2-4.2-9-8.4-12.7-13.1c-1.7,0.9-3.5,1.3-5.4,1.3    c7.4,11.4,12,25.6,11.2,39.2C122.4-94,130.3-100.1,133.9-104.1z"/>
		<path class="st0" d="M19.5-240c8-23.4,16.8-46.6,27.1-69.1c4.5,13.2,22.4,18.8,33.9,23.7c12.1,5.2,25.3,8.3,38,4.3    c-8.6,20.3-17.3,40.7-26.5,60.7c-1.7,3.6-3.3,7.3-5.2,10.8c-2.1,3.6-16.1-2.5-19-3.6C50.9-219.2,31.3-225.8,19.5-240z M58.1-251.2    c1.4,3.7,4.9,5,8.3,4c1.4,1.6,3.7,1.7,5.6,0.7c2,1.2,4.7,2.2,6.7,0.6c2.3-1.9,2.7-5.4,2-8.2c0-0.2-0.1-0.5-0.2-0.8    c-0.4-0.6-0.7-1-1-1.3c1.6-3.5,1.3-7.5-1.9-10.1c-1.3-1.1-4.2-2.2-5.9-1.5c-1.6,0.7-2.5,1.7-3.1,3c-1.5-1.3-3.3-2-5.4-1.2    c-3.1,1.2-2.7,4.9-1.9,7.7C58.4-256.8,56.7-254.6,58.1-251.2z"/>
		<path class="st0" d="M188.2-110.8c-10.6-5.5-23.9-9.6-35.9-8.9C162.4-112.4,176.7-107.2,188.2-110.8z"/>
		<path class="st0" d="M190.8-113c0.3-6.3-1-12.4-6.2-16.7c-4.9-4-11.7-6.1-17.9-4.1c-6.4,2-11.1,6.2-15.1,11.2    C165-123.6,179.1-119.1,190.8-113z"/>
		<path class="st0" d="M62-250.7c-1.6-3-1.1-4.8,1.3-5.4c0.7-0.3,1.3-1,1-1.8c-0.4-1-0.7-2.1-0.8-3.2c2-2,3.4-1.9,4.3,0.2    c0.7,1,2.5,1,2.7-0.4c0.7-3.5,3.9-4.7,6.1-1.5c1.3,1.9,0.6,4.4-0.5,6.1c-0.3,0.6-0.3,1.4,0.2,1.8c0.4,0.5,0.8,0.9,1.2,1.4    c0.4,1.2,0.4,2.3-0.1,3.5c-0.8,3.2-3.8,1.1-4.9,0.3c-0.6-0.4-1.3-0.2-1.8,0.2c-0.9-0.1-1.7-0.2-2.6-0.3c-0.3-0.6-1.1-0.9-1.7-0.7    c-0.7,0.4-1.5,0.6-2.3,0.6C63.5-250,62.8-250.4,62-250.7z M68.6-252.5c1.7,1,4.1,0.4,4.9-1.5c0,0,0-0.1,0-0.1    c0-0.1,0.1-0.2,0.1-0.2c0.6-1.7-0.4-3.5-2-4.3c-1.7-0.8-3.9-0.2-4.7,1.5C66.2-255.3,67-253.4,68.6-252.5z"/>
		<path class="st0" d="M73.8-15.4c-1-3.2-2-6.3-3-9.5c-3.3-10.2-6.7-20.4-10-30.6c-5-15.3-10-30.6-15.1-45.9c-0.3-0.8,0.3-1.6,1-1.8    c5-1.4,6.1-8.3,5.7-12.6c-0.9-10-4.1-20.4-7.2-29.9c-1-3.2-2-6.8-3.8-9.7c0,0.3,0,0.5,0.1,0.8c0.7,5.9,2,11.7,3.2,17.5    c1,4.9,2.6,10.5,2.2,15.5c-0.1,1.9-2,4.8-3.9,2.4c-2.5-3-3.4-7.7-4.5-11.3c-1.8-6-3.4-12.1-5.7-17.9c-0.2-0.4-3-7.3-3.9-6.6    c-1.4,1,0.1,6.1,0.4,7.4c1.7,7.5,4.4,14.8,6.7,22.2c0.5,1.5,3.8,9.7-0.2,9.7c-3.6,0-5.8-8.7-6.8-11.2c-2.8-7.3-5.2-15-8.8-22    c-0.3-0.6-0.6-1.3-1-1.9c0,0.2,0,0.3,0,0.5c0.2,3.2,0.9,6.4,1.5,9.5c1.7,7.9,3.9,15.8,6.2,23.6c2,6.7,4.9,16.6,13.5,16.7    c0.7,0,1.3,0.5,1.4,1.1c4.4,15.4,9,30.7,13.9,46C59-42.7,62.4-32,66.3-21.5c1.4,3.8,2.8,7.7,4.6,11.4c0.5,1.1,1,2.1,1.7,3.1    c0.1,0.2,0.2,0.3,0.3,0.4c1.7-1.5,2.9-1.6,2-5.1C74.5-13,74.1-14.2,73.8-15.4z"/>
		<path class="st0" d="M43.8-121C43.8-120.9,43.8-120.9,43.8-121L43.8-121z"/>
		<path class="st0" d="M19.1-152C19.2-152.1,19.1-152.3,19.1-152L19.1-152z"/>
		<path class="st0" d="M70.9-255.3c0-0.2-0.1-0.4-0.4-0.6c-0.2-0.1-0.7-0.1-0.7,0.2C69.6-255.1,70.4-254.8,70.9-255.3z"/>
		<path class="st0" d="M103.1-299.2c-1.8-3.3-5.2-4.7-8.9-4.3c-1.4,0.1-1.8-1.7-1.1-2.6c2.1-2.5,5.3-7.2,1.7-10    c-2.4-1.9-5.6-3.1-7.9-0.4c-1.6,1.9-2.7,4.2-3.3,6.6c-0.3,1.2-1.7,1.4-2.5,0.7c-6.4-5.4-15.7-0.8-22.5,1.3c-3.1,1-6.1,0.3-8.8-1.2    c5.1,12.1,22.9,17,33.7,21.8c10.2,4.5,21.7,6.6,32.6,3.8C109.6-286.2,104.5-292.1,103.1-299.2z"/>
		<path class="st0" d="M517.6-315.2c-1.9-1-4.2-0.2-4.5,1.9c-0.1,0.9-0.1,1.8,0.1,2.7c1.3,0.1,2.5,0.3,3.8,0.6    C517.9-311.5,519.4-314.3,517.6-315.2z"/>
		<path class="st0" d="M645.6-145.1c2.3,0.8,5,0.6,7-0.6c-5.2-1.1-10.4-9.2-12.1-12.8c-1.2-2.5-2.4-6-1.9-9    c-0.8,0.6-1.5,1.3-2.2,2.1c-1.3,1.4-3.1,3.2-2.1,5.2C636.9-154.6,640.6-148.9,645.6-145.1z"/>
		<path class="st0" d="M631.9-158c2.4,4.8,5.5,9.7,9.6,13.4c0,0.1,0,0.2,0,0.3c0.8,3.1-1.6,7.3-2.9,9.8c-3.1,6-7.8,10.3-13.1,14.2    c-6.1,4.6-12.8,8.6-19.5,12.2c-7.7-6.5-14-15.2-17.8-24.5c0.9-3.7,5.9-6.5,8.6-8.6c3-2.3,6.1-4.6,9.2-6.8    C612.6-152.9,623.6-158.9,631.9-158z M629.1-144.4c-2.2-3-5.4-2-8.1-0.2c-1.2,0.8-2.1,2.1-2.2,3.5c-0.3,3.1,3.1,6,0.9,9    c-4.6,6.2-11.8-4.5-5.9-7.4c1.7-0.9,0.1-3.4-1.6-2.6c-6.8,3.3-3.1,15,4,15c4,0,7.2-3.9,7.5-7.6c0.3-2.9-4.1-5.4-0.6-7.8    c1.6-1.1,2.6-1.4,4,0.5c1,1.4,0.6,2.9-0.4,4c-1.3,1.4,0.8,3.5,2.2,2.1C631.4-138.4,631.1-141.7,629.1-144.4z"/>
		<path class="st0" d="M654.9-148.9c0.1-0.1,0.3-0.2,0.4-0.2c0.1-0.3,0.2-0.7,0.3-1c0.8-4.4-2.3-7-4.5-10.3c-1.9-2.7-4-6.1-7-7.7    c-0.6-0.3-1.2-0.5-1.8-0.6C637.8-162.6,651.3-146,654.9-148.9z"/>
		<path class="st0" d="M562-284c-1.3-0.5-2.4-1.3-3.4-2.4c-3.8,2.3-8.2,4-12.3,5.7c-3.4,1.5-6.9,3-10.4,4.4    c1.5,3.7,5.3,10.1,7.8,16.4C546.8-269.4,553.8-278,562-284z"/>
		<path class="st0" d="M572.8-245.6c-0.6-3.2,2.2-2.7,4.6-2.4c6.9,0.8,13.6,3,20.2,5c20,6.2,40.6,9.9,61.1,14.3    c42.4,9.2,84.5,19.5,126.7,29.6c1.2,10.3-4.9,22.5-15.7,24.1c-11.5,1.6-22.3-1.7-33.4-3.8c-8.9-1.7-17.7-3.5-26.5-5.5    c-14.1-3.2-28.5-6.2-42-11.4c-6-2.3-11.7-5.5-12.8-12.6c-0.7-4.8,0.1-10,2.1-14.4c0.3-0.6-0.2-1.5-0.8-1.6    c-15.4-3-30.8-5.9-46.2-9c-9.4-1.8-19-3.2-28.2-5.7C578.8-239.8,573.5-242.2,572.8-245.6z M747.9-182.7    C747.9-182.7,747.9-182.6,747.9-182.7c0.4,0.4,0.7,0.5,1.2,0.5c6.6-1,14.7-5.2,13.7-13.1c-0.8-6.8-6.5-5.6-10.8-2.4    c-2.3-5.3-8.3-6.9-11.3-0.7C738.2-193.2,744.5-186.2,747.9-182.7z M717.3-189.4c0.1,0.1,0.1,0.1,0.2,0.2c0.3,0.2,0.6,0.3,1,0.2    c6.3-1.5,14.5-7.4,13.1-14.9c-1-5.6-7.2-2.7-10.9-0.7c-0.8-2-2.1-4.6-4.2-5.1c-3.1-0.7-6.7,2-7.6,5.1    C707.4-199,713.7-192.8,717.3-189.4z M685.8-196.1c0.4,0.3,0.9,0.3,1.2,0.1c0,0,0,0,0.1,0c5.3-2.1,13.1-5.8,12.9-12.4    c-0.1-6.6-6.7-6.2-10.5-3.1c-2.9-4.8-8.6-8.4-11.5-0.9C675.4-205.8,680.5-199.5,685.8-196.1z"/>
		<path class="st0" d="M533.6-283c1.5-0.4,3.2-1.4,2.9-3c-0.1-0.7-0.4-1-0.7-1.3c0,0.3-0.1,0.6-0.1,0.8c-0.2,1.4-2.5,1.2-2.2-0.2    c0-0.1,0.1-0.3,0.1-0.4c-0.3,0.1-0.6,0.3-0.9,0.5C532.9-285.4,533.3-284.2,533.6-283z"/>
		<path class="st0" d="M605.8-308.6c3.4-9.5,9.3-18.5,16.7-25.3c3.8-0.4,8.2,3.2,11.1,5.1c3.2,2,6.4,4.1,9.6,6.2    c6.9,4.5,16.3,12.7,18.5,20.8c-3.7,3.9-7.1,8.6-9.2,13.7c-0.1,0-0.2,0.1-0.3,0.1c-2.6,1.8-7.4,1-10.2,0.7    c-6.7-0.8-12.3-3.7-17.9-7.3C617.6-298.7,611.5-303.5,605.8-308.6z M627.1-305.7c1.4,3.8,6.2,5.3,9.8,4.4c2.8-0.7,3.6-5.8,7.1-3.3    c1.6,1.1,2.2,1.9,0.9,4c-0.9,1.4-2.6,1.6-3.9,1c-1.8-0.8-2.9,2-1.2,2.8c3.3,1.4,6.2,0,8-2.9c2-3.1,0-5.8-2.7-7.6    c-1.1-0.8-2.7-1.2-4.1-0.8c-3.1,0.8-4.5,5-8.1,4c-7.4-2.1,0.1-12.6,4.8-8.1c1.4,1.3,3.2-1.1,1.8-2.4    C634.2-319.9,624.6-312.3,627.1-305.7z"/>
		<path class="st0" d="M491.1-292.7c0.1,0.8-0.6,1.2-1.3,1.1c0,0.1-0.1,0.3-0.1,0.5c0,0.9,0.5,1.7,0.9,2.5c1-1,2-2.1,2.9-3.2    c-0.6-0.4-1.3-0.8-2.1-0.9C491.3-292.7,491.2-292.7,491.1-292.7z"/>
		<path class="st0" d="M661.2-277.2c0.1,0.1,0.2,0.2,0.3,0.3c0.3,0,0.7-0.1,1.1-0.1c4.4-0.8,5.8-4.6,8.1-7.8    c1.9-2.7,4.3-5.9,4.7-9.2c0.1-0.7,0.1-1.3-0.1-1.9C668-298,657.2-279.5,661.2-277.2z"/>
		<path class="st0" d="M718.6-191.6c4.4-1.2,8.6-4.2,10.1-8.6c2.5-7.3-5.3-3.2-7.8-1.4c-0.7,0.5-1.9,0.4-2.1-0.7    c-0.4-1.8-1.2-4-3-4.8c-1.8-0.8-3.5,2.1-4.2,3.2c-0.8,1.2,0.2,3.1,0.7,4.2C713.7-196.8,716.2-194,718.6-191.6z"/>
		<path class="st0" d="M686.6-198.6c2.7-1.1,5.3-2.6,7.6-4.3c2.4-1.8,4.7-4.8,2.5-7.8c-1.5-2.1-5.5,0.8-6.5,2    c-0.6,0.7-1.8,0.8-2.2-0.1c-0.6-1.3-1.4-2.6-2.3-3.7c-3-3.8-5.7,0.1-5.9,3.8C679.5-204.7,683.4-200.8,686.6-198.6z"/>
		<path class="st0" d="M759.4-190.6c1.2-1.8,1.3-4.5,0.5-6.5c-0.7-1.6-2.8-0.7-3.9-0.2c-1.3,0.6-2.6,1.5-3.7,2.4    c-0.7,0.6-1.9,0.3-2.1-0.7c-0.5-2-1.8-4-3.8-4.7c-4-1.5-3.5,5.6-2.7,7.4c1.3,2.9,3.4,5.6,5.5,7.9    C753.1-185.6,757.2-187.3,759.4-190.6z"/>
		<path class="st0" d="M542.9-254.6c0.2,1,0.4,2,0.5,3c0.6,5.4-1.7,8.5-7.1,9.5c-4,0.7-8,0.6-12,0.1c-7-0.9-14-2.1-21-3.1    c-4.2-0.7-8.5-1.3-12.7-1.9c-4.3-0.6-8.8-0.7-13.1-1.9c-6-1.7-14.2-5.1-11.2-12.6c1.3-3.2,2.6-6.1,5.3-8.3    c3.2-2.7,6.5-5.4,9.7-8.1c5.7-4.7,13.3-9.3,16.5-16.4c8.6,7.4,21.6,7.2,31.9,4.1c0.2,0.9,0.5,1.9,0.7,2.9c-0.2,0.4,0,0.9,0.3,1.2    c0.4,1.6,0.7,3.1,1.2,4.7c0,0.2,0.1,0.3,0.1,0.5c0.3,1.1,0.6,2.2,1,3.2c2.7,7.5,7.7,14.5,9.7,22.3c0,0,0,0,0,0    C542.6-255,542.7-254.8,542.9-254.6z M517.5-270.1c-0.7-4.1-5.5-3.7-7.9-1.3c-0.8-1.4-1.9-2.7-3.3-3.2c-2.5-0.9-5,0.8-5.6,3.2    c-0.7,2.7,1.3,5.5,3,7.4c1,1,2.6,3.1,4.2,3.4c0.2,0.1,0.4,0.1,0.7,0.1C513.4-261.5,518.4-264.6,517.5-270.1z"/>
		<path class="st0" d="M813.4-321.9c1.1,1.2-0.7,3-1.8,1.8c-0.8-0.8-1.3-2-1.6-3.2c-2.1-0.2-4.1-0.2-6.2,0c0.2,0.8,0.4,1.6,0.8,2.4    c0.7,1.5-1.5,2.7-2.2,1.3c-0.6-1.1-0.9-2.2-1.1-3.4c-4.4,0.7-8.7,2.3-12.5,4.9c6.1,0.4,12.2,0.8,18.2,1.1c6.1,0.3,12.1-0.7,18-2.1    c-3.9-1.9-8.1-3.2-12.4-3.9C812.9-322.6,813.1-322.2,813.4-321.9z"/>
		<path class="st0" d="M801.1-285.1c0.2,0.1,0.4,0.3,0.5,0.5c6.2,0.5,12.7,0,18.5-2.1c0.2-0.2,0.4-0.3,0.6-0.4    c0.3-0.3,0.5-0.7,0.8-1.1c0.9-1.5,1.8-3,2.6-4.6c2.1-3.9,3.3-7.9,3.7-12.3c0.4-4.1,0.5-8.3,0.2-12.4c-6.9,1.8-13.8,3.1-21,2.8    c-6.8-0.3-13.6-0.8-20.4-1.2C786.3-304.4,789.9-290.4,801.1-285.1z"/>
		<path class="st0" d="M800.9-282.1c-1.3,2.4-2.5,4.9-3.8,7.3c9.6,0.9,19.6,0,28.8-2.9c-1.4-2.3-3.4-4.5-5.2-6.5    C814.5-281.9,807.5-281.4,800.9-282.1z"/>
		<path class="st0" d="M375.2-289c1-2.1,0.3-6.7-2.9-6.1c-1.4,0.3-4.4,1.4-4.9,2.8c0,0,0,0.1,0,0.1c-0.2,1.5-0.4,2.9-0.7,4.3    C369.4-287.1,373.9-286.4,375.2-289z"/>
		<path class="st0" d="M381.9-283.1c4.1-1.9,4.5-6.7,3.4-10.8c-1.2-4.6-5.1-12.6-11.1-10.2c-2.4,1-4.5,2.8-6.1,4.8    c-0.1,0.1-0.2,0.2-0.3,0.3c0,0.8-0.1,1.7-0.1,2.5c1.5-0.9,3.2-1.4,4.6-1.5c4.3-0.3,6.8,3.9,6.3,7.9c-0.8,6.4-7.6,6.5-12.7,5.2    c-0.3,0.9-0.6,1.8-0.9,2.7C370.2-279.7,376.6-280.6,381.9-283.1z"/>
		<path class="st0" d="M528.6-293.8c-1.4-4.5-3.5-8.7-7.4-11.8c-3.8-3-9-3.3-13.5-1.9c-4.8,1.5-7.3,5.5-8.8,9.9    C508.6-298.7,519.6-298,528.6-293.8z"/>
		<path class="st0" d="M175.8-144.1c-2.7,0.2-2.2,4.5-1.7,6.9c1.7,0.2,3.4,0.5,5,1.1c0.6-1,1.2-2.1,1.4-3.3    C181.2-142.4,178.7-144.4,175.8-144.1z"/>
		<path class="st0" d="M531.5-291.5C531.5-291.4,531.5-291.4,531.5-291.5c0.2,1,0.4,1.8,0.6,2.7c0.6-0.3,1.3-0.6,1.9-0.7    c0.5-2.4,1.2-4.9,2.8-6.7c3.7-4.2,7.8-7.8,10.1-13c3-6.8-2.5-13.2-7.9-16.7c-6.4-4-13.3-2.6-20.2-0.9c-5.8,1.5-11.5,1.6-17.2-0.2    c-6.4-1.9-13.4-7.4-20.2-4.4c-10.9,4.9-2.7,16.7,1.4,23c2.7,4.1,5.9,8.7,7.6,13.4c1.4-0.2,3.1,0.3,4.4,1.1    c1.8-3.1,2.4-6.8,4.3-9.8c1.9-3.1,5.1-5.2,8.5-6.3c1.1-0.4,2.2-0.6,3.3-0.7c-0.2-1.4-0.2-2.9,0.2-4.3c0.9-3,4.4-3.4,7-2.6    c3.7,1.2,2.5,5.5,0.9,8.2c2.9,1.2,5.4,3.3,7.5,5.8c2.5,3.1,3.8,7,4.7,10.8c0,0,0,0.1,0,0.1C531.5-292.2,531.6-291.8,531.5-291.5z"/>
		<path class="st0" d="M514.2-271c-1.1-0.3-3.3,0.9-3.5,2.1c-0.2,1.1-1.7,1.4-2.1,0.3c-0.4-1-0.9-1.8-1.6-2.7    c-1.9-2.5-4.8-0.7-3.9,2.1c0.5,1.6,1.7,3,2.8,4.1c0.5,0.5,2,2.1,2.6,2.3c1.8-0.4,3.6-1.3,5-2.4C514.8-266,517-270.3,514.2-271z"/>
		<path class="st0" d="M842.8-296.5c3.4-1.6,3.8-5.7,2.9-9.1c-1-3.9-4.3-10.6-9.3-8.5c-2,0.8-3.8,2.3-5.1,4    c-0.1,0.1-0.2,0.2-0.3,0.2c0,0.7,0,1.4-0.1,2.1c1.2-0.7,2.7-1.2,3.8-1.3c3.7-0.3,5.7,3.3,5.3,6.6c-0.7,5.3-6.4,5.5-10.7,4.4    c-0.2,0.8-0.5,1.5-0.8,2.2C832.9-293.6,838.4-294.4,842.8-296.5z"/>
		<path class="st0" d="M527.4-291.9c-8.2-3.7-18.7-4.5-27.3-3.4C507.1-289.8,518.4-289.6,527.4-291.9z"/>
		<path class="st0" d="M657.4-278.2c-0.8-5.3,5-13,7.7-15.8c1.9-2,4.8-4.3,7.8-4.9c-0.8-0.5-1.8-0.9-2.8-1.4c-1.7-0.7-4-1.8-5.6-0.2    c-4.3,4.5-8.3,9.9-10.1,15.9C654.4-282.1,655.5-279.7,657.4-278.2z"/>
		<path class="st0" d="M572.7-159.9c3.6-0.6,4.9-4.3,5-7.6c0.1-3.8-1.2-10.8-6.4-10.2c-2.1,0.2-4.1,1.2-5.7,2.4    c-0.1,0.1-0.2,0.1-0.3,0.2c-0.2,0.6-0.4,1.3-0.6,1.9c1.3-0.4,2.8-0.4,3.8-0.2c3.4,0.7,4.4,4.5,3.2,7.4c-2,4.7-7.3,3.4-10.9,1.3    c-0.4,0.6-0.8,1.3-1.3,1.9C562.9-159.7,568.1-159.1,572.7-159.9z"/>
		<path class="st0" d="M530.6-157.2c-1.8,1.9-3.5,3.9-5.3,5.8c8.6,3.3,18.1,5,27.3,4.6c-0.7-2.5-2-5-3.2-7.3    C543.1-153.7,536.5-154.9,530.6-157.2z"/>
		<path class="st0" d="M469.1-55.9C469.1-55.9,469.1-55.9,469.1-55.9L469.1-55.9z"/>
		<path class="st0" d="M552.2-190.7c0.7,1.4-1.4,2.6-2.1,1.2c-0.5-1-0.7-2.1-0.7-3.4c-1.9-0.7-3.8-1.2-5.7-1.6    c-0.1,0.8,0,1.5,0.1,2.4c0.3,1.5-2,2.1-2.3,0.6c-0.2-1.2-0.3-2.3-0.1-3.4c-4.3-0.5-8.6-0.1-12.8,1.4c5.5,1.9,11,3.8,16.5,5.6    c5.6,1.8,11.3,2.4,17.1,2.6c-3.1-2.7-6.6-5-10.4-6.7C551.9-191.5,552-191.1,552.2-190.7z"/>
		<path class="st0" d="M568.8-165.8c1.3-1.4,1.6-5.1-0.9-5.3c-1.1-0.1-3.7,0.1-4.4,1.1c0,0,0,0-0.1,0.1c-0.5,1.1-1,2.1-1.5,3.2    C563.9-165.6,567.2-164.1,568.8-165.8z"/>
		<path class="st0" d="M498.7-155.8c-0.4,1.1-0.7,2.2-1,3.4c-0.8,2.9-1.5,5.9-2.3,8.8c-2.5,9.5-4.9,19.1-7.3,28.7    c-3.6,14.3-7.3,28.6-10.9,42.9c-0.2,0.7-1,1.1-1.7,0.9c-4.6-1.4-8.8,3.4-10.6,6.9c-4.2,8.2-6.8,17.8-9.1,26.7    c-0.8,3-1.7,6.2-1.8,9.4c0.1-0.2,0.2-0.4,0.3-0.7c2.4-4.9,4.2-10.1,6.2-15.1c1.7-4.3,3.1-9.4,5.9-13.1c1-1.4,3.9-2.7,4.2,0.1    c0.4,3.6-1.2,7.6-2.1,11c-1.6,5.5-3.3,11-4.4,16.7c-0.1,0.4-1.2,7.1-0.2,7c1.6-0.1,3-4.8,3.3-5.9c2.4-6.7,3.9-13.6,5.7-20.4    c0.4-1.4,1.8-9.4,4.9-7.4c2.8,1.8,0.2,9.6-0.3,12c-1.4,7.1-3.4,14.2-4,21.4c-0.1,0.6-0.1,1.3-0.2,2c0.1-0.1,0.2-0.2,0.2-0.4    c1.4-2.6,2.5-5.3,3.5-8.1c2.6-7,4.8-14.2,6.8-21.3c1.7-6.2,4.4-15.3-2.2-19.5c-0.5-0.3-0.8-1-0.6-1.6c4.2-14.1,8.1-28.3,11.9-42.5    c2.6-9.9,5.2-19.9,7.4-30c0.8-3.7,1.6-7.4,2-11.1c0.1-1.1,0.3-2.2,0.2-3.2c0-0.2,0-0.3,0-0.4C500.7-158.4,499.7-159,498.7-155.8z"/>
		<path class="st0" d="M412.1-200.6c-3.2,1.8-5.9,4.5-7.9,7.6c-6.9,10.7-10.2,25.3-9.6,37.9c0.3,4.9,0.9,12.5,4.9,16.1    c0.4,0.3,0.6,1,0.4,1.5c-3.2,8.1-29.4,78.5-21.8,81.8c0.2,0,0.3,0.1,0.5,0.1c0.3,0.1,0.5,0.2,0.6,0.4c3.6,1.8,5.2-5.4,5.9-8.1    c1.1-3.8,2.1-7.6,3.2-11.4c3.4-12.5,6.8-25,10.2-37.5c7.2-26.6,14.3-53.3,21.4-79.9c0.7-2.7,1.8-6.3-0.3-9    C418.1-203.4,413.7-201.5,412.1-200.6z"/>
		<path class="st0" d="M473-19.8C472.8-19.7,472.8-19.5,473-19.8L473-19.8z"/>
		<path class="st0" d="M852.6-124.9c-1.8-12-3.7-24-5.6-35.9c-4-25.5-8.1-51-12.1-76.5c-0.4-2.6-0.8-6.1-3.7-7.6    c-2-1.1-5.1,2.1-6.1,3.5c-2.1,2.8-3.3,6.1-3.8,9.5c-1.8,11.8,0.9,25.5,6.2,36.1c2.1,4.1,5.5,10.3,10.3,11.9    c0.4,0.1,0.9,0.6,0.9,1.1c0.4,8.2,4.8,78.3,12.5,78.2c0.1,0,0.3-0.1,0.5-0.1c0.2,0,0.4,0,0.6,0c3.8,0.3,2.5-6.5,2.1-9.2    C853.8-117.6,853.2-121.2,852.6-124.9z"/>
		<path class="st0" d="M407-20.9C407-20.9,407-20.9,407-20.9c2.3-5-10.9-6.9-14.7-7.6c-8.4-1.4-16.9-2.6-25.4-3.7    c-18.8-2.6-37.7-5-56.6-7.4c-0.8-0.1-1.5-0.6-1.5-1.5c-0.3-7.8-5.6-15.8-13.1-18.3c-7.9-2.6-17.7-2-25.4,1    c-4.6,1.8-10.5,5.1-12.3,10.2c-4.5,13,10.8,24.7,21.9,26.2c11.5,1.6,23.5-2.7,28.8-13.6c0.3-0.6,1.1-0.9,1.7-0.7    c15.7,4.2,31.5,8.1,47.3,11.5c11.2,2.4,22.5,4.8,33.9,6c1.2,0.1,15.9,1.5,15.2-1C406.7-20.2,406.8-20.6,407-20.9z"/>
		<path class="st0" d="M878-355V-2H0v-353H878z M784.3-317c-0.8,12.1,3,27.3,14.5,33.5c-1.5,2.9-3,5.9-4.5,8.8    c-0.1,0.1-0.2,0.3-0.2,0.5c-0.3,0.9,0.5,1.7,1.3,1.7c10.8,1.3,22.5,0.3,32.8-3.3c0.8-0.3,1.1-1.1,0.8-1.9c-1.3-2.9-3.8-5.5-6-8    c0.3-0.4,0.6-0.9,0.8-1.2c1.4-2.1,2.7-4.4,3.7-6.7c5,2.4,10.8,1.7,15.8-0.5c4.4-1.9,5.7-5.8,5.1-10.5c-0.7-4.7-3.8-12.2-9.5-12.5    c-3-0.2-5.8,1.3-8,3.4c-0.1-1.8-0.2-3.6-0.4-5.4c-0.1-0.8-0.7-1.4-1.6-1.2c0,0-0.1,0-0.1,0c-5.1-2.8-10.8-4.8-16.5-5.5    c0-1.9,0.7-4,1.4-5.4c0.9-2,2.4-4.1,4.8-4.1c3.5,0,3.9,5.5,0.2,4.5c-1.6-0.4-2.2,2-0.7,2.4c3.1,0.9,5.8-1.2,6-4.4    c0.3-3.6-4.1-5.3-7-4.9c-4.5,0.6-7.3,6.6-7.2,11.7c-2-0.1-4-0.1-6,0c0.4-6.5,6.4-12.7,2.1-19.2c-1.3-2-4.1-3.7-6.6-3.2    c-3.5,0.7-4.8,4-5.3,7.2c-0.3,1.6,2.2,2.3,2.4,0.7c0.6-3.6,2.9-7.2,6.6-4.2c2.5,2.1,2.4,5.3,1.5,8.1c-1.2,3.7-2.8,7.2-3,10.9    c-5.9,0.9-11.6,3.2-16.4,7.4c-0.1,0-0.1,0.1-0.1,0.1c0,0,0,0-0.1,0.1C784.3-317.7,784.2-317.3,784.3-317z M738.9-273.1    c-6.4,6.3-8,14.5-6.3,23.1c0.6,3.4,0.7,6.9,1.4,10.2c0.6,2.9,2,5.4,2,8.4c0,4.6-0.4,10.9-6.2,11.5c-1.7,0.2-5.1-0.5-5.1-0.5    c-0.1,0-0.1,0-0.2-0.1c0,0-0.1,0-0.1,0c0,0-0.1,0-0.1,0c0,0-0.1,0-0.1,0c0,0-0.1,0-0.1,0c0,0,0,0,0,0c-0.2-0.1-0.1,0,0,0    c0,0,0,0,0,0c0,0,0,0,0.1,0c0,0,0.1,0,0.1,0c0,0,0.1,0,0.1,0c0,0,0.1,0,0.1,0c0.1,0,0.2,0.1,0.2,0.1c-1.6-0.5-2.4,1.9-0.8,2.4    c2.4,0.8,6.1,1.1,8.7-0.1c5.6-2.4,6.2-8.9,5.9-14.3c-0.1-2.2-0.9-4.1-1.6-6.2c-0.7-2.3-0.5-4.6-0.9-7c-1.3-7.5-3.3-15.2,1.5-22    c5.1-7.3,12.4-8.2,19.4-2.9c4.2,3.2,7.7,7,6.8,12.7c-1.2,7.2-10.9,11.4-17,6.7c-2.9-2.2-1.8-10.9,2.7-9.3c1.5,0.6,2.3-1.9,0.8-2.4    c-1-0.4-2-0.4-3,0c-3.8,1.5-5.7,6.4-4.6,10.2c1.8,6.2,11,6.4,15.9,4.8c5.6-1.7,8.4-7.7,7.9-13.2c-0.6-5.6-4.7-9.8-9.4-12.6    C751.2-277,744.1-278.2,738.9-273.1z M720.7-228.5c9.6-2.7,8-19.1,7-25.9c-1.1-8.4-4.3-17.7-3.6-26.2c0.3-3.6,2.1-8.3,6.2-9.1    c3.9-0.8,7.4,2.6,6.8,6.5c-0.2,1.6,2.3,1.7,2.6,0.1c0.8-6-5.3-10.8-10.9-8.8c-6.6,2.4-7.6,9.9-7.1,15.9    c0.9,10.8,4.8,21.4,4.1,32.4c-0.2,3.8-1.3,11.4-5.7,12.6C718.5-230.6,719.1-228.1,720.7-228.5z M699.3-247.8    c0.3,5.7,4.8,7.9,9.8,5.3c1.5-0.8,0.3-3-1.2-2.3c-3.5,1.9-6.5,0.3-6-4c0.4-3.7,2-8,6.6-7.5c9.6,1.1,8,11.6,5.3,18.1    c-1.8,4.4-5.5,9.7-1.8,14.1c2,2.4,4.8,4.1,7.7,5.2c1.6,0.6,2.3-1.9,0.8-2.4c-2.2-0.8-4.6-2.1-6.1-3.9c-3.5-4.2,1.4-10.3,2.8-14.6    c2.2-6.7,2.4-16.1-6-18.5C704.1-260.4,698.9-254.9,699.3-247.8z M603.1-307c7.2,6.5,15.1,12.5,23.5,17.4    c5.9,3.4,12.1,5.2,18.9,5.5c1.8,0.1,3.9,0,5.8-0.4c0,4.5,2.8,8.7,7.4,10c7.6,2,10.8-3.4,14.6-8.8c2.5-3.6,7.8-11.2,4.2-15.6    c-2.8-3.3-8.9-6.6-13.2-4.8c-3-8.9-12-16.2-19.1-21.3c-3.7-2.6-7.6-4.9-11.4-7.3c-3.3-2-7.5-5.2-11.6-4.6c-0.4-0.1-0.7,0-1.1,0.4    c-8.2,7.5-14.8,17.3-18.3,27.8C602.4-308.1,602.6-307.5,603.1-307z M570.1-247.1c0.3,9.8,13.9,11.2,21.2,12.7    c20.9,4.2,41.8,8.2,62.7,12.2c-1.9,4.9-2.8,11.1-1.2,16.1c2.2,7.1,7.6,10.4,14.2,12.8c13.6,5.1,27.9,8.3,42,11.4    c8.7,1.9,17.9,3.1,26.5,5.5c10.2,2.9,21.4,5,32,4.2c6.7-0.5,12.1-2.8,15.7-8.8c3.5-5.7,5.6-12.6,4.6-19.3c0-0.3-0.1-0.5-0.3-0.7    c-0.2-0.2-0.4-0.3-0.7-0.4c-22.1-5.3-44.1-10.6-66.2-15.9c-20.3-4.9-40.8-9.4-61.2-13.8c-20.5-4.4-41.1-8.1-61.1-14.3    C594.9-246.5,569.9-255.9,570.1-247.1z M631.1-161c-9.4-0.3-19.4,5.5-26.6,10.4c-3.7,2.5-7.3,5.4-10.9,8.1    c-3.1,2.4-7.5,5.2-8.3,9.3c-0.2,0.3-0.2,0.7-0.1,1.2c4.1,10.3,11,19.9,19.6,26.9c0.6,0.5,1.2,0.5,1.8,0.2    c8.6-4.5,17-9.7,24.5-15.9c5.3-4.3,9.1-9.5,11.8-15.8c0.7-1.6,1.4-3.6,1.6-5.6c4.2,1.6,9.2,0.4,11.9-3.4    c4.6-6.4,0.6-11.3-3.2-16.7c-2.5-3.6-7.8-11.3-13.2-9.4C636.1-170.3,630.9-165.7,631.1-161z M463.2-259.1    c-0.2,5.3,4.3,8.6,8.7,10.5c4.9,2,9.8,2.5,15,3.2c5.4,0.7,10.7,1.5,16.1,2.3c6.4,0.9,12.8,2,19.2,2.9c5.9,0.9,13.3,1.6,18.8-1.3    c5.5-2.9,5.7-8.5,3.9-14.6c2.3-11.2,10.8-21.2,20.1-27.5c0.9-0.6,0.3-1.8-0.6-2c-2.1-0.4-3.6-1.4-4.9-3c-0.4-0.5-1.1-0.5-1.6-0.2    c-4.1,2.7-9,4.4-13.5,6.3c-3.2,1.4-6.3,2.7-9.5,4c-0.3-0.9-0.6-1.7-0.9-2.6c2.7-0.9,5.4-2.9,4.3-6c-0.5-1.4-1.3-2.2-2.3-2.5    c0.3-1.5,0.8-3,1.4-4.3c1.1-2,3.2-3.6,4.8-5.3c3.7-4.1,8.5-9.9,7.4-16c-1.1-5.8-5.4-10.7-10.6-13.4c-6.5-3.4-12.9-2.6-19.9-0.9    c-3.8,1-7.7,1.7-11.7,1.3c-4.4-0.5-8.3-2.2-12.4-3.9c-5.8-2.4-12.7-4.5-17.9,0.7c-5.2,5.3-4,11.8-0.6,17.8    c3.6,6.4,9.4,12.4,11.6,19.6c-0.3,0.4-0.6,0.8-0.8,1.4c-0.6,1.7,0.3,3.7,1.4,5.3c-2,1.7-4,3.3-6.1,4.9c-3.7,3-7.3,6.1-11.1,9.1    C467.7-269.8,463.5-264.7,463.2-259.1z M312.3-307.5c-0.9,14.4,3.6,32.4,17.3,39.9c-1.8,3.5-3.6,7-5.4,10.4    c-0.1,0.2-0.2,0.4-0.3,0.6c-0.4,1.1,0.6,2,1.5,2c12.9,1.6,26.7,0.4,39-3.9c1-0.3,1.3-1.3,0.9-2.2c-1.5-3.5-4.5-6.6-7.1-9.5    c0.4-0.5,0.7-1,1-1.5c1.7-2.5,3.2-5.2,4.4-8c5.9,2.9,12.9,2,18.8-0.6c5.2-2.3,6.8-6.9,6-12.5c-0.8-5.6-4.5-14.5-11.3-14.9    c-3.6-0.2-7,1.6-9.5,4.1c-0.1-2.2-0.2-4.3-0.4-6.4c-0.1-1-0.9-1.7-1.9-1.4c-0.1,0-0.1,0-0.2,0c-6-3.4-12.8-5.7-19.7-6.6    c0.1-2.3,0.9-4.7,1.6-6.4c1-2.4,2.9-4.9,5.7-4.9c4.1,0,4.7,6.6,0.2,5.3c-1.9-0.5-2.7,2.4-0.8,2.9c3.7,1.1,6.8-1.4,7.2-5.2    c0.4-4.2-4.9-6.3-8.3-5.9c-5.3,0.7-8.7,7.8-8.6,13.9c-2.4-0.2-4.8-0.2-7.2,0c0.5-7.7,7.6-15.1,2.5-22.8c-1.6-2.4-4.9-4.4-7.9-3.8    c-4.2,0.8-5.7,4.7-6.4,8.5c-0.3,1.9,2.6,2.7,2.9,0.8c0.7-4.2,3.4-8.6,7.8-5c3,2.5,2.8,6.3,1.7,9.7c-1.4,4.4-3.4,8.6-3.6,13    c-7,1-13.8,3.8-19.5,8.8c-0.1,0-0.1,0.1-0.2,0.1c0,0-0.1,0.1-0.1,0.1C312.3-308.4,312.2-307.9,312.3-307.5z M244.5-283.3    c-10.2-0.2-13.4,10.2-13.2,18.6c0.1,5.4,3.4,13.8-2,17.3c-2.3,1.5-5.5,2.1-8.2,2.2c-1.9,0.1-1.9,3.1,0,3c3.7-0.2,7.4-1.1,10.5-3.1    c5.6-3.6,3.4-10.8,2.9-16.4c-0.7-8.2,1.3-20.6,12.4-18.4c5.3,1,5.5,6.4,4.7,10.7c-1,5-4.8,5.7-8.1,2.4c-1.4-1.4-3.5,0.7-2.1,2.1    c4.7,4.7,10.4,3.8,12.8-2.5C257-275.1,253.1-283.1,244.5-283.3z M224.3-320.2c0.8-4.5,5.9-7.1,9.9-4.9c4.2,2.4,4.6,8.3,3.7,12.4    c-2.2,9.8-9,19-13.2,28c-3.4,7.3-11,25.1-1.3,31.4c1.6,1.1,3.1-1.5,1.5-2.6c-4.5-2.9-3-11.8-1.9-16.1c3.1-12.5,11.1-23,16-34.7    c2.7-6.5,4.2-15.3-2.3-20.3c-5.5-4.2-14-1-15.2,5.9C221-319.1,223.9-318.3,224.3-320.2z M188-288c4.9,3.4,15.3,6.5,19.5,0.2    c2.6-3.8,2.2-10.1-1.6-13.1c-1-0.8-2.1-1.1-3.3-1c-1.9,0.1-1.9,3.1,0,3c5.5-0.3,3.8,9.8-0.3,11.3c-8.5,3.1-17.8-5-16.6-13.5    c1-6.7,6.2-9.7,12.1-11.8c9.7-3.4,17.5,0.1,20.6,10.1c2.9,9.2-2,17.2-6.1,25.1c-1.3,2.5-1.9,5.2-3.5,7.5c-1.5,2.1-3.1,3.9-4,6.4    c-2.2,5.9-3.8,13.4,1.6,18.1c2.5,2.2,6.7,3.1,9.7,3.1c2,0,2-3.4,0-3.4c0,0,0.9,0,0.9,0c0.1,0-0.9,0-0.9,0s-4.1-0.3-5.9-1.1    c-6.2-2.7-4.5-9.7-2.8-14.9c1.1-3.4,3.6-5.7,5.2-8.6c1.9-3.5,3.3-7.4,5.2-10.9c4.9-9,6.1-18.7,1.1-28c-4-7.5-12.4-8.7-20-6.8    c-6.2,1.6-12.3,4.7-15,10.8C181.3-299.6,182.4-291.9,188-288z M138.4-245.3c-3.4,7.1-3.5,15.7-1.7,23.2    c1.9,7.9,7.1,12.4,14.4,15.3c11.6,4.6,24.8,6.3,37.3,6.6c10.5,0.3,21.1,2.3,31.6,3.2c16.9,1.5,34,3,51,2.1    c8.1-0.4,15.4-2.2,20.3-9.3c3.5-5,4.7-12.2,4.3-18.4c24.8,2.9,49.5,5.7,74.3,8.4c8.7,0.9,24.4,4.2,28.2-6.7    c3.3-9.7-27.9-8-32.2-8.1c-24.5-0.1-48.9-3.3-73.3-5.5c-24.4-2.3-48.8-4.4-73.3-6.1c-26.5-1.8-53-3.7-79.5-5.6    c-0.3-0.1-0.7,0-0.9,0.2C138.7-245.9,138.5-245.7,138.4-245.3z M286.4-142.4c-3,8.9-0.1,20.2,2.5,28.5c1.4,4.3,3.1,8.5,4.8,12.7    c1.4,3.6,2.8,8.6,6.5,10.6c0.2,0.3,0.6,0.4,1.1,0.4c11-1.1,22.2-5,31.3-11.3c0.6-0.4,0.8-1,0.7-1.7c-1.9-9.5-4.5-19.1-8.3-28    c-2.6-6.3-6.6-11.4-11.8-15.8c-1.4-1.1-3.1-2.4-4.9-3.1c2.7-3.6,3-8.7,0.1-12.4c-4.9-6.2-10.7-3.7-16.9-1.7    c-4.2,1.3-13,4.3-12.7,10C278.9-149.8,281.9-143.5,286.4-142.4z M77.3-14.2c-0.7-2.5-1.6-5-2.4-7.5c-3.3-10.2-6.6-20.4-10-30.6    c-5.3-16.2-10.6-32.4-16-48.6c3.2-1.6,5.2-5.2,6-8.6c1.1-4.6,0.1-9.5-0.9-14.1c-1.4-6.4-3-12.7-4.8-18.9    c-0.9-3.2-3.7-17.5-8.8-17.5c-3.8,0-1.7,8.2-1.4,10c1.2,7.6,3,15,4.2,22.6c0.2,1.4,0.4,2.8,0.5,4.2c-0.8-1.8-1.2-4.1-1.7-5.6    c-1.4-4.3-6.7-32.6-14.8-28.8c-3.9,1.9-1.1,10.5-0.4,13.3c1.7,6.7,4.1,13.2,6.1,19.8c-0.4-1.1-0.8-2.2-1.2-3.2    c-2.8-7.2-5.3-14.5-8.5-21.5c-0.9-1.9-4.1-8.5-6.7-4.6c-2.4,3.4,0.8,12.1,1.6,15.6c1.8,7.8,3.9,15.5,6.2,23.2    c1.7,5.6,3.7,11.3,8.7,14.9c1.9,1.4,3.8,2.2,6.1,2.4c4.9,17.2,10.1,34.4,15.6,51.5c3.5,10.9,7.1,21.9,11.4,32.6    C66.8-12.1,71,0,74.4-4c1-1.1,2.3-1.4,3.2-2.7C79-8.7,77.8-12.1,77.3-14.2z M92.5-214.4c10.7-22.5,20.3-45.6,30-68.5    c0.1-0.1,0.1-0.3,0.1-0.5c0.2-0.7,0-1.4-0.7-1.6c-0.2-0.1-0.4-0.2-0.7-0.2c-7.7-1.4-13.8-7.2-15.2-15c-0.1-0.3-0.2-0.5-0.4-0.7    c-1.8-3.2-4.9-5.1-8.4-5.5c1.5-2.2,2.7-4.8,2.1-7.5c-0.9-4-4.5-6.6-8.4-7.2c-4.8-0.7-8,4.2-9.5,8.4c-4.3-2.6-9.4-2.2-14.4-1    c-3.1,0.7-6.1,1.9-9.2,2.9c-3.5,1.2-7-0.7-9.6-3.1c-0.3-0.3-0.6-0.4-0.9-0.4c-0.7-0.4-1.5-0.4-1.9,0.5    c-11.2,24.2-20.7,49.2-29.3,74.4c-0.4,1.2,0.7,1.9,1.6,1.8c12,14.1,31.2,20.5,48,26.7c5.6,2.1,15.5,7,21.6,4.7    C90-207.1,91.4-212.1,92.5-214.4z M233.9-144.8c-3.9-9-13.6-9.7-22.1-9.5c-5.9,0.2-11.6,0.4-17.4-1.1c-5.2-1.3-9.7-4.2-14-7.3    c-7.8-5.6-15.5-9.6-25.3-8.5c-7.8,0.9-15.5,4.9-19.8,11.6c-4.4,7-1.2,16.6,1.5,23.6c1.1,2.9,3,5.9,3.4,9c0.2,2,0.1,4-0.3,6.1    c-1.4-0.1-2.9,0.5-4.1,2c-2.9,3.4-0.5,7.3,2.5,9.7c-0.8,1-1.6,1.9-2.4,2.8c-3.3-3.2-6.7-6.4-10-9.7c-4.6-4.6-10.1-9.1-13.8-14.5    c-0.5-0.6-1.3-1-2.1-0.5c-2.3,1.5-4.8,1.9-7.6,1.4c-1.2-0.2-2.5,1-1.7,2.2c8.7,12.4,14.5,29,12,44.2c-5.2,6.8-7.7,14-2.2,20.2    c5.5,6.3,15.1,8.9,23,10.7c8.5,2,17,3.7,25.6,5.7c7.1,1.5,14.2,3.1,21.3,4.8c6.9,1.7,13.3,3.4,20.4,3.2c6.5-0.2,13.8-2.2,16.1-8.9    c2.4-7.1-0.5-15.7-4-21.8c-3.2-5.6-6.2-11.3-9.5-16.8c-1.8-3-3.6-6-5.2-9.1c2.1-1.4,4.2-3.5,4.2-6c0-0.9-0.1-1.6-0.4-2.2    c6.3-7.8,16.5-12.7,24.1-18.9C233.2-128.1,237.9-135.6,233.9-144.8z M409.8-20.1c4-11.5-27.8-13-33.6-13.8    c-21.5-3.1-43-5.8-64.5-8.5c-0.9-8.9-6.8-16.6-15.2-19.8c-12.3-4.7-35.5-1-41.2,12.7c-5.7,13.7,9.4,26.8,21.1,29.9    c12.9,3.4,27.8-1.4,34.4-13.4c17.5,4.7,35.1,8.9,52.8,12.6C367.6-19.7,411.4-9.7,409.8-20.1z M414.7-204.8    c-17.7,3.8-22.4,31.4-23,45.8c-0.3,6.7,0.6,14.2,4.2,20c0.3,0.5,0.6,0.9,0.9,1.3c-0.4,1-0.8,2-1.1,3c-4.8,12.6-9.3,25.3-13.4,38.1    c-3.2,10-6.3,20.1-7.8,30.5c-0.5,3.4-2,12.1,3,13.2c8.1,5.3,11.1-11.3,12.4-16.3c3.7-13.5,7.3-27,11-40.5    c7.3-27.1,14.5-54.2,21.8-81.3C424.4-197.6,423.8-206.8,414.7-204.8z M502.9-161.6c-1.3,0.4-2.5-0.1-3.8,0.5    c-2.1,0.9-2.9,4.1-3.4,6c-0.7,2.3-1.2,4.7-1.9,7c-2.5,9.5-4.9,19.1-7.3,28.6c-3.9,15.2-7.7,30.3-11.5,45.5    c-3.3-0.3-6.6,1.5-8.9,3.7c-3.2,3-4.7,7.4-6.2,11.4c-2.1,5.6-3.9,11.3-5.6,17c-0.9,3-5.7,15.4-1.7,17.9c3,1.9,5.3-5.5,6-7.1    c2.8-6.5,5-13.1,7.8-19.6c0.5-1.2,1.1-2.4,1.7-3.5c-0.3,1.8-1.1,3.8-1.4,5.2c-1.1,4-10.8,28.6-2.7,29.6c4,0.5,6-7.6,6.9-10.1    c2-6,3.3-12.2,5-18.3c-0.2,1.1-0.4,2.1-0.6,3.1c-1.3,6.9-3,13.8-4,20.8c-0.3,1.9-1,8.6,2.9,6.9c3.5-1.5,5.4-9.8,6.5-12.9    c2.5-6.9,4.6-14,6.6-21c1.4-5.2,2.7-10.6,0.6-15.8c-0.8-2-1.9-3.6-3.5-4.9c4.6-15.8,9.1-31.6,13.2-47.6    c2.7-10.2,5.3-20.5,7.2-30.9C504.8-151.6,507.5-163.1,502.9-161.6z M523-149.8c9.6,4,20.6,6,31,5.3c0.8-0.1,1.3-0.7,1.2-1.5    c-0.4-3-2.1-6-3.5-8.8c0.4-0.3,0.7-0.7,1.1-0.9c1.8-1.6,3.6-3.4,5.1-5.2c4,3.5,9.5,4.3,14.7,3.5c4.5-0.7,6.7-3.9,7.3-8.4    c0.6-4.5-0.4-12.2-5.6-13.9c-2.7-0.9-5.7-0.2-8.2,1.1c0.4-1.7,0.7-3.4,1-5c0.1-0.8-0.3-1.5-1.2-1.5c0,0-0.1,0-0.1,0    c-3.9-3.9-8.7-7.1-13.8-9.3c0.5-1.8,1.7-3.5,2.6-4.6c1.3-1.6,3.3-3.1,5.5-2.6c3.2,0.8,2.2,6.1-1,4.1c-1.3-0.8-2.6,1.3-1.2,2.1    c2.7,1.6,5.6,0.4,6.6-2.5c1.2-3.2-2.4-5.9-5.2-6.3c-4.3-0.6-8.4,4.2-9.6,8.9c-1.8-0.6-3.7-1.2-5.6-1.5c2-5.9,9.1-10.1,6.8-17.1    c-0.7-2.2-2.8-4.5-5.3-4.6c-3.4-0.2-5.4,2.4-6.7,5.2c-0.6,1.4,1.4,2.6,2.1,1.2c1.5-3.1,4.5-5.9,7.1-2.2c1.8,2.6,0.8,5.5-0.7,7.8    c-2,3.1-4.4,5.9-5.5,9.3c-5.7-0.7-11.5,0-17,2.6c-0.1,0-0.1,0-0.2,0.1c0,0-0.1,0-0.1,0c-0.4,0.2-0.6,0.5-0.6,0.9    c-3.8,10.9-4.2,25.8,4.9,34.5c-2.1,2.3-4.3,4.6-6.4,6.9c-0.2,0.1-0.3,0.2-0.4,0.4C521.7-150.9,522.3-150,523-149.8z M689.8-37.1    c4-11.5-27.8-13-33.6-13.8c-21.5-3.1-43-5.8-64.5-8.5c-0.9-8.9-6.8-16.6-15.2-19.8c-12.3-4.7-35.5-1-41.2,12.7    c-5.7,13.7,9.4,26.8,21.1,29.9c12.9,3.4,27.8-1.4,34.4-13.4c17.5,4.7,35.1,8.9,52.8,12.6C647.6-36.7,691.4-26.7,689.8-37.1z     M815.1-75.6c-13.3-21.1-27.6-41.6-41.7-62.1c-0.1-0.1-0.2-0.2-0.3-0.4c-0.4-0.5-1.1-0.8-1.8-0.3c-0.2,0.1-0.4,0.3-0.5,0.5    c-5.3,5.7-13.5,7.7-20.9,4.8c-0.3-0.1-0.6-0.1-0.8-0.1c-3.6-0.2-6.9,1.4-9.2,4.1c-1.1-2.5-2.6-4.9-5.2-5.8    c-3.8-1.4-8,0.2-10.6,3.3c-3.1,3.7-0.7,9,2,12.5c-4.5,2.3-6.9,6.8-8.6,11.6c-1.1,3-1.7,6.2-2.5,9.3c-0.9,3.6-4.4,5.5-7.7,6.4    c-0.4,0.1-0.6,0.3-0.8,0.5c-0.7,0.3-1.1,1.1-0.6,1.9c14.4,22.4,30.4,43.9,47,64.7c0.8,1,2,0.5,2.4-0.4    c18.3-2.6,34.1-15.3,48.3-26.1c4.8-3.6,14.2-9.3,15.6-15.7C819.9-69.6,816.5-73.4,815.1-75.6z M856.1-120.6c-2-12.9-4-25.9-6-38.8    c-4.1-25.9-8.2-51.9-12.3-77.8c-1-6.4-5-14-12.1-8.8c-13.6,10-7.2,35.3-2.3,47.9c2.3,5.9,5.9,11.9,11.2,15.5    c0.4,0.3,0.8,0.5,1.3,0.8c0,1,0.1,2,0.2,3c0.7,12.6,1.7,25.2,3.1,37.7c1.1,9.7,2.3,19.6,5,29c0.9,3.1,2.9,11.1,7.6,10.1    C860.7-100.5,856.9-115.9,856.1-120.6z"/>
		<path class="st0" d="M549.4-156.5c0.2-0.1,0.4-0.2,0.7-0.2c0.3-0.2,0.7-0.5,1-0.8c1.2-1.1,2.4-2.3,3.6-3.5c2.9-3,5-6.5,6.5-10.4    c1.4-3.7,2.6-7.5,3.3-11.4c-6.8-0.1-13.5-0.7-20-2.8c-6.2-2-12.3-4.2-18.5-6.3c-3.3,10.4-3.5,24.2,5.5,31.9    c0.2,0.2,0.3,0.4,0.3,0.6C537.4-157.2,543.5-156.1,549.4-156.5z"/>
		<path class="st0" d="M754.2-27.7c-15.4-19.3-30.3-39.2-43.7-59.9c13.6,3.3,27.9-8.8,38.3-15.9c10.9-7.4,20.5-16.9,24-29.8    c12.5,18.2,25,36.5,37,55c2.2,3.3,4.4,6.7,6.3,10.2c1.9,3.7-10.8,12.2-13.2,14.1C788.7-43.1,772.6-30.1,754.2-27.7z M761.2-72.7    c-0.2,3.1,0.7,5.7,4.3,6.4c3.9,0.7,6.8-1.5,7.9-4.9c2.2-0.3,3.5-2.2,3.6-4.4c2.1-1,4.4-2.8,4.1-5.3c-0.4-3-3.2-5.2-5.9-6.1    c-0.2-0.1-0.4-0.2-0.7-0.2c-0.8,0-1.2,0-1.7,0.1c-2.1-3.2-5.7-5.1-9.6-3.8c-1.6,0.5-4.1,2.3-4.4,4.1c-0.3,1.7,0.1,3,0.9,4.2    c-1.9,0.5-3.4,1.7-3.9,4C755.1-75.2,758.5-73.5,761.2-72.7z"/>
		<path class="st0" d="M687-37.9C687-37.9,687-37.9,687-37.9c2.3-5-10.9-6.9-14.7-7.6c-8.4-1.4-16.9-2.6-25.4-3.7    c-18.8-2.6-37.7-5-56.6-7.4c-0.8-0.1-1.5-0.6-1.5-1.5c-0.3-7.8-5.6-15.8-13.1-18.3c-7.9-2.6-17.7-2-25.4,1    c-4.6,1.8-10.5,5.1-12.3,10.2c-4.5,13,10.8,24.7,21.9,26.2c11.5,1.6,23.5-2.7,28.8-13.6c0.3-0.6,1.1-0.9,1.7-0.7    c15.7,4.2,31.5,8.1,47.3,11.5c11.2,2.4,22.5,4.8,33.9,6c1.2,0.1,15.9,1.5,15.2-1C686.7-37.2,686.8-37.6,687-37.9z"/>
		<path class="st0" d="M749.2-130.1c-3.8-0.2-6.7,1.9-8.4,5.2c-0.6,1.3-2.4,0.6-2.7-0.5c-1-3.1-3.2-8.3-7.5-6.8    c-2.9,1-5.6,3.1-4.6,6.4c0.7,2.4,2.1,4.5,3.8,6.4c0.8,0.9,0.3,2.1-0.8,2.5c-8,2.5-9.2,12.8-11,19.7c-0.8,3.2-3,5.3-5.7,6.8    c12.9,2.2,26.7-10.2,36.5-16.7c9.3-6.2,17.3-14.8,20.7-25.5C763.6-128.6,756-127.5,749.2-130.1z"/>
		<path class="st0" d="M769-79.3c-0.2-0.1-0.4-0.2-0.7,0c-0.2,0.1-0.4,0.5-0.2,0.7C768.4-78.1,769.1-78.7,769-79.3z"/>
		<path class="st0" d="M763.8-82.3c-2.6-2.4-1.9-5.8,2-5.9c2.3-0.1,4,1.9,4.9,3.7c0.3,0.6,1,1,1.7,0.8c0.6-0.1,1.2-0.2,1.9-0.3    c1.2,0.3,2.2,0.9,2.9,1.9c2.3,2.4-1.1,3.8-2.4,4.3c-0.6,0.3-0.9,1-0.8,1.7c-0.6,0.7-1.1,1.3-1.7,2c-0.6-0.1-1.4,0.4-1.5,1.1    c-0.1,0.8-0.3,1.6-0.7,2.3c-0.7,0.5-1.4,1-2,1.4c-3.4-0.3-4.7-1.6-3.8-4c0.1-0.8-0.1-1.7-1-1.9c-1.1-0.2-2.1-0.6-3.1-1.1    c-0.6-2.8,0.2-3.9,2.5-3.5C763.9-79.8,764.8-81.3,763.8-82.3z M765.4-76.9c1,1.6,3.1,1.9,4.7,1.1c1.7-0.9,2.5-3.3,1.4-4.9    c0,0-0.1-0.1-0.1-0.1c0-0.1-0.1-0.1-0.1-0.2c-1.1-1.4-3.2-1.6-4.7-0.6C765.1-80.7,764.4-78.6,765.4-76.9z"/>
		<path class="st0" d="M144.9-118c0.7-1,1.4-2,2.1-3.1c0,0,0,0,0,0c0-0.4,0.3-0.8,0.7-1c0-0.1,0.1-0.1,0.1-0.2    c2.9-4.5,6.4-8.6,11.1-11.3c3.8-2.2,8-3.5,12.2-3.7c-0.6-4.2-0.2-10.1,5.1-9.8c3.7,0.2,7.7,2.5,7.5,6.6c-0.1,1.9-0.8,3.8-1.8,5.5    c1.3,0.7,2.6,1.5,3.8,2.4c3.7,3,6.8,7.2,7.7,12c0.9,4.8-0.1,9.7,0.6,14.4c2-0.4,4.3-0.2,6,0.7c4.4-5.2,10.7-9.3,16-13.1    c8.2-6,24.2-16.8,12.9-28.2c-7-7.2-18.5-3.6-27.4-4.3c-8.1-0.6-15.1-3.5-21.7-8.1c-7.7-5.5-15.8-10.7-25.7-8.7    c-8.5,1.7-18.4,7.1-18,17.1c0.3,7.7,3.8,14.2,6.4,21.2c1.1,3,0.8,6.5,0.3,9.8C143.6-119.4,144.3-118.7,144.9-118z"/>
		<path class="st0" d="M137.9-116.6c-1.1,1.9,0.5,3.9,2.2,5.2c1-1.3,2-2.7,3-4c-0.3-0.4-0.6-0.7-0.9-1.1c0,0.2-0.1,0.4-0.1,0.6    c-0.4,1.9-3.3,1.1-2.9-0.8c0.1-0.4,0.1-0.7,0.2-1.1C138.9-117.8,138.4-117.4,137.9-116.6z"/>
		<path class="st0" d="M194.7-103.3c0.6,1.9,1.3,3.7,2.1,5.4c1-0.7,1.9-1.6,2.4-2.7c0.1-0.2,0.1-0.4,0.1-0.6c-0.9-0.2-1.7-1-1.1-2    c-0.1-0.1-0.3-0.1-0.4-0.2C196.7-103.6,195.7-103.5,194.7-103.3z"/>
		<path d="M122-285c-0.2-0.1-0.4-0.2-0.7-0.2c0.1,0,0.3,0.1,0.4,0.1C121.8-285.1,121.9-285.1,122-285z"/>
		<path d="M122.7-283.4c-0.2,0.7-0.9,1.3-1.8,1.2c-1.6-0.3-3.2-0.7-4.7-1.3c-10.9,2.8-22.4,0.7-32.6-3.8    c-10.8-4.8-28.6-9.7-33.7-21.8c2.7,1.5,5.7,2.2,8.8,1.2c6.8-2.2,16.2-6.7,22.5-1.3c0.8,0.7,2.2,0.5,2.5-0.7    c0.6-2.4,1.7-4.7,3.3-6.6c2.3-2.7,5.5-1.5,7.9,0.4c3.6,2.8,0.4,7.5-1.7,10c-0.8,0.9-0.4,2.7,1.1,2.6c3.7-0.4,7.1,1,8.9,4.3    c0-0.1,0-0.1,0-0.2c-0.3-1.6,1.7-2.4,2.5-1.5c-1.8-3.2-4.9-5.1-8.4-5.5c1.5-2.2,2.7-4.8,2.1-7.5c-0.9-4-4.5-6.6-8.4-7.2    c-4.8-0.7-8,4.2-9.5,8.4c-4.3-2.6-9.4-2.2-14.4-1c-3.1,0.7-6.1,1.9-9.2,2.9c-3.5,1.2-7-0.7-9.6-3.1c-0.3-0.3-0.6-0.4-0.9-0.4    c0.6,0.4,1,1.2,0.7,2c-0.5,1-0.9,2.1-1.4,3.1c4.5,13.2,22.4,18.8,33.9,23.7c12.1,5.2,25.3,8.3,38,4.3    c-8.6,20.3-17.3,40.7-26.5,60.7c-1.7,3.6-3.3,7.3-5.2,10.8c-2.1,3.6-16.1-2.5-19-3.6c-16.9-6-36.4-12.6-48.3-26.8    c-0.2,0.5-0.3,1-0.5,1.5c-0.2,0.6-0.7,1-1.3,1c12,14.1,31.2,20.5,48,26.7c5.6,2.1,15.5,7,21.6,4.7c2.7-1,4.1-6,5.2-8.3    c10.7-22.5,20.3-45.6,30-68.5C122.6-283.1,122.6-283.2,122.7-283.4z"/>
		<path d="M103.1-299.4c0,0.1,0,0.1,0,0.2c1.4,7.1,6.5,13,13,15.7c1.5,0.6,3.1,1.1,4.7,1.3c0.9,0.1,1.6-0.5,1.8-1.2    c0.2-0.7,0-1.4-0.7-1.6c-0.1,0-0.2-0.1-0.3-0.1c-0.1,0-0.3-0.1-0.4-0.1c-7.7-1.4-13.8-7.2-15.2-15c-0.1-0.3-0.2-0.5-0.4-0.7    C104.8-301.8,102.8-301,103.1-299.4z"/>
		<path d="M19-238.5c0.2-0.5,0.3-1,0.5-1.5c8-23.4,16.8-46.6,27.1-69.1c0.5-1,0.9-2.1,1.4-3.1c0.4-0.9,0-1.7-0.7-2    c-0.7-0.4-1.5-0.4-1.9,0.5c-11.2,24.2-20.7,49.2-29.3,74.4c-0.4,1.2,0.7,1.9,1.6,1.8C18.2-237.6,18.7-237.9,19-238.5z"/>
		<path d="M58.1-251.2c-1.4-3.4,0.3-5.6,3.1-7.1c-0.8-2.8-1.2-6.5,1.9-7.7c2.2-0.8,4-0.1,5.4,1.2c0.6-1.3,1.4-2.3,3.1-3    c1.7-0.7,4.5,0.4,5.9,1.5c3.2,2.6,3.5,6.6,1.9,10.1c0.3,0.4,0.6,0.7,1,1.3c0.2,0.3,0.2,0.5,0.2,0.8c0.7,2.8,0.3,6.3-2,8.2    c-1.9,1.6-4.7,0.6-6.7-0.6c-1.9,1.1-4.2,1-5.6-0.7C63-246.2,59.5-247.5,58.1-251.2z M62-250.7c0.8,0.3,1.5,0.6,2.3,0.9    c0.8-0.1,1.6-0.3,2.3-0.6c0.6-0.2,1.4,0.1,1.7,0.7c0.9,0.1,1.7,0.2,2.6,0.3c0.5-0.4,1.2-0.6,1.8-0.2c1.2,0.8,4.2,2.9,4.9-0.3    c0.4-1.2,0.5-2.4,0.1-3.5c-0.4-0.5-0.8-0.9-1.2-1.4c-0.5-0.4-0.6-1.3-0.2-1.8c1-1.7,1.8-4.3,0.5-6.1c-2.2-3.2-5.4-2-6.1,1.5    c-0.3,1.4-2.1,1.4-2.7,0.4c-0.8-2.1-2.2-2.2-4.3-0.2c0.1,1.1,0.3,2.2,0.8,3.2c0.3,0.8-0.3,1.6-1,1.8    C60.9-255.5,60.4-253.7,62-250.7z"/>
		<path d="M67-257c0.8-1.8,3-2.3,4.7-1.5c1.6,0.7,2.5,2.6,2,4.3c0,0.1-0.1,0.2-0.1,0.2c0,0,0,0.1,0,0.1c-0.8,1.8-3.2,2.4-4.9,1.5    C67-253.4,66.2-255.3,67-257z M69.7-255.6c-0.1,0.5,0.8,0.8,1.2,0.4c0-0.2-0.1-0.4-0.4-0.6C70.2-256,69.7-255.9,69.7-255.6z"/>
		<path d="M135-103.1c-0.3-0.3-0.7-0.7-1-1c-3.6,4-11.5,10.1-17.7,16.8c-0.1,2-0.4,4-0.7,5.9c6.3-8.8,16-15.3,23-23.3    c1-1.1,1.9-2.4,2.9-3.6c-0.4,0.4-1,0.5-1.6,0.1c-0.5-0.3-1-0.6-1.4-1c-0.8,1-1.6,1.9-2.4,2.8c0.4,0.4,0.8,0.8,1.2,1.1    C138.5-103.8,136.4-101.7,135-103.1z"/>
		<path d="M143.6-114.7c-0.1-0.3-0.3-0.5-0.5-0.8c-1,1.4-2,2.7-3,4c0.4,0.3,0.8,0.6,1.1,0.8c0.8,0.5,0.8,1.3,0.5,1.9    c1.3-1.7,2.5-3.5,3.7-5.3C144.8-113.8,144.1-113.9,143.6-114.7z"/>
		<path d="M195.4-96.9c0.5-0.3,0.9-0.6,1.4-0.9c-0.8-1.8-1.5-3.6-2.1-5.4c-0.5,0.1-1,0.3-1.4,0.4c-1.8,0.6-2.6-2.3-0.8-2.9    c0.5-0.2,1-0.3,1.6-0.4c-0.7-4.8,0.3-9.6-0.6-14.4c-0.9-4.8-3.9-9-7.7-12c-1.2-1-2.5-1.8-3.8-2.4c-0.2,0.4-0.5,0.8-0.7,1.1    c-1.1,1.6-3.7,0.1-2.6-1.5c0.2-0.3,0.4-0.5,0.5-0.8c-1.6-0.6-3.3-0.9-5-1.1c0.1,0.3,0.1,0.6,0.2,0.9c0.5,1.9-2.4,2.7-2.9,0.8    c-0.1-0.5-0.3-1.1-0.4-1.7c-4.2,0.2-8.4,1.5-12.2,3.7c-4.7,2.7-8.2,6.9-11.1,11.3c0,0.1-0.1,0.1-0.1,0.2c0.1-0.1,0.3-0.1,0.4-0.1    c1.2-0.2,2.3-0.3,3.5-0.4c4-5,8.6-9.2,15.1-11.2c6.2-1.9,12.9,0.2,17.9,4.1c5.3,4.2,6.5,10.4,6.2,16.7c0.7,0.4,1.4,0.7,2.1,1.1    c0.9,0.5,1,2.1,0,2.6c-0.7,0.3-1.5,0.6-2.2,0.9c0.6,10.4,7.8,19.8,12.7,28.5c2.8,4.9,5.6,9.9,8.3,14.9c2.3,4.1,2.6,8.4,2.6,13    c0.1,10.9-11.9,11.2-20.2,10.4c-5.9-0.6-11.6-2.6-17.3-3.9c-5.6-1.3-11.3-2.6-16.9-3.8c-9.3-2.1-18.6-4-27.8-6.2    c-5.2-1.3-10.4-3.1-15-5.9c-6.4-3.8-7.8-8.8-4.4-15.3c0.6-1.2,1.3-2.3,2.1-3.5c-1,0.4-2.5-0.4-2.2-1.8c0.1-0.4,0.1-0.7,0.2-1.1    c-5.2,6.8-7.7,14-2.2,20.2c5.5,6.3,15.1,8.9,23,10.7c8.5,2,17,3.7,25.6,5.7c7.1,1.5,14.2,3.1,21.3,4.8c6.9,1.7,13.3,3.4,20.4,3.2    c6.5-0.2,13.8-2.2,16.1-8.9c2.4-7.1-0.5-15.7-4-21.8c-3.2-5.6-6.2-11.3-9.5-16.8c-1.8-3-3.6-6-5.2-9.1c-0.4,0.3-0.8,0.5-1.2,0.8    C195.2-93.4,193.7-96,195.4-96.9z"/>
		<path d="M147.5-119.8c-0.5-0.4-0.6-0.9-0.5-1.3c-0.7,1-1.4,2-2.1,3.1c0.5,0.6,0.9,1.2,1.3,1.8c0.1,0.2,0.2,0.5,0.2,0.7    c0.8-1.1,1.5-2.2,2.3-3.3C148.3-119.1,147.9-119.4,147.5-119.8z"/>
		<path d="M114.8-80.3c0.3-0.2,0.6-0.5,0.7-1c0,0,0,0,0-0.1c0.4-2,0.6-3.9,0.7-5.9c0.9-13.6-3.8-27.8-11.2-39.2    c1.9-0.1,3.7-0.5,5.4-1.3c3.7,4.8,8.4,8.9,12.7,13.1c3.6,3.6,7.2,7.1,10.9,10.6c0.3,0.3,0.7,0.7,1,1c1.4,1.3,3.5-0.8,2.1-2.1    c-0.4-0.4-0.8-0.8-1.2-1.1c-3.3-3.2-6.7-6.4-10-9.7c-4.6-4.6-10.1-9.1-13.8-14.5c-0.5-0.6-1.3-1-2.1-0.5c-2.3,1.5-4.8,1.9-7.6,1.4    c-1.2-0.2-2.5,1-1.7,2.2c8.7,12.4,14.5,29,12,44.2c-0.1,0.4-0.1,0.7-0.2,1.1C112.3-80.6,113.8-79.8,114.8-80.3z"/>
		<path d="M176.2-147.1c-5.3-0.3-5.7,5.7-5.1,9.8c0.1,0.6,0.2,1.2,0.4,1.7c0.5,1.9,3.4,1.1,2.9-0.8c-0.1-0.2-0.1-0.5-0.2-0.9    c-0.5-2.4-1-6.6,1.7-6.9c2.9-0.3,5.3,1.7,4.7,4.6c-0.2,1.2-0.8,2.3-1.4,3.3c-0.2,0.3-0.4,0.6-0.5,0.8c-1.1,1.6,1.5,3.1,2.6,1.5    c0.3-0.4,0.5-0.8,0.7-1.1c1-1.7,1.7-3.6,1.8-5.5C183.9-144.7,179.9-146.9,176.2-147.1z"/>
		<path d="M194-106.1c-0.5,0.1-1.1,0.2-1.6,0.4c-1.8,0.6-1,3.5,0.8,2.9c0.5-0.2,1-0.3,1.4-0.4c1-0.2,2-0.3,3.1,0    c0.2,0,0.3,0.1,0.4,0.2c0-0.1,0.1-0.1,0.1-0.2c0.5-0.8,1.1-1.5,1.7-2.2C198.3-106.4,196-106.5,194-106.1z"/>
		<path d="M199.3-101.1c0,0.2-0.1,0.4-0.1,0.6c-0.5,1.1-1.4,2-2.4,2.7c-0.5,0.3-0.9,0.6-1.4,0.9c-1.7,1-0.2,3.6,1.5,2.6    c0.4-0.2,0.8-0.5,1.2-0.8c2.1-1.4,4.2-3.5,4.2-6c0-0.9-0.1-1.6-0.4-2.2c-0.4,0.5-0.8,1-1.1,1.5C200.5-101.2,199.9-101,199.3-101.1    z"/>
		<path d="M143.6-114.7c0.4,0.8,1.2,0.9,1.8,0.6c0.6-0.2,1-0.8,1-1.4c0-0.2-0.1-0.5-0.2-0.7c-0.4-0.7-0.8-1.3-1.3-1.8    c-0.6-0.7-1.3-1.4-2.1-1.8c-0.2,1.1-0.4,2.2-0.6,3.3c0.3,0.3,0.6,0.7,0.9,1.1C143.3-115.2,143.5-114.9,143.6-114.7z"/>
		<path d="M141.3-108.2c0.2-0.1,0.3-0.3,0.4-0.5c0.3-0.6,0.2-1.5-0.5-1.9c-0.3-0.2-0.7-0.5-1.1-0.8c-1.7-1.3-3.3-3.3-2.2-5.2    c0.5-0.8,1-1.1,1.5-1.2c0.2-1,0.4-1.9,0.5-2.9c-1.4-0.1-2.9,0.5-4.1,2c-2.9,3.4-0.5,7.3,2.5,9.7c0.5,0.4,0.9,0.7,1.4,1    C140.3-107.7,140.9-107.9,141.3-108.2z"/>
		<path d="M147.7-122.1c0.1-0.1,0.3-0.1,0.4-0.1c1.2-0.2,2.3-0.3,3.5-0.4c13.4-1,27.5,3.5,39.2,9.6c0.7,0.4,1.4,0.7,2.1,1.1    c0.9,0.5,1,2.1,0,2.6c-0.7,0.3-1.5,0.6-2.2,0.9c-14.3,5.1-30.6-1.4-42-10.3c-0.4-0.3-0.8-0.7-1.2-1c-0.5-0.4-0.6-0.9-0.5-1.3    c0,0,0,0,0,0C147-121.6,147.2-121.9,147.7-122.1z M152.3-119.7c10.1,7.3,24.4,12.5,35.9,8.9C177.6-116.3,164.3-120.4,152.3-119.7z    "/>
		<path d="M211.8-154.2c-5.9,0.2-11.6,0.4-17.4-1.1c-5.2-1.3-9.7-4.2-14-7.3c-7.8-5.6-15.5-9.6-25.3-8.5    c-7.8,0.9-15.5,4.9-19.8,11.6c-4.4,7-1.2,16.6,1.5,23.6c1.1,2.9,3,5.9,3.4,9c0.2,2,0.1,4-0.3,6.1c-0.2,1-0.3,2-0.5,2.9    c-0.1,0.4-0.1,0.7-0.2,1.1c-0.4,1.9,2.5,2.7,2.9,0.8c0-0.2,0.1-0.4,0.1-0.6c0.2-1.1,0.4-2.2,0.6-3.3c0.6-3.3,0.8-6.8-0.3-9.8    c-2.6-7-6.1-13.6-6.4-21.2c-0.4-9.9,9.5-15.4,18-17.1c9.9-2,18,3.2,25.7,8.7c6.5,4.7,13.6,7.5,21.7,8.1c8.9,0.7,20.4-2.8,27.4,4.3    c11.3,11.5-4.7,22.2-12.9,28.2c-5.3,3.9-11.6,8-16,13.1c-0.6,0.7-1.2,1.4-1.7,2.2c0,0.1-0.1,0.1-0.1,0.2c-0.5,1,0.2,1.8,1.1,2    c0.5,0.1,1.1-0.1,1.5-0.6c0.4-0.5,0.7-1,1.1-1.5c6.3-7.8,16.5-12.7,24.1-18.9c7.1-5.9,11.8-13.4,7.8-22.6    C230-153.7,220.3-154.5,211.8-154.2z"/>
		<path d="M175.7-80.9c-0.4,3.7-4.3,6.3-7.3,7.8c-1.8,0.8-4.9,2.7-7.1,2.3c-0.2,0-0.5-0.1-0.8-0.2c-5.4-3.6-10.1-10-6.4-16.4    c2.8-4.8,8.7-1.9,10.5,2.2c1.7-1.3,3.7-2.5,5.6-2.4C173.7-87.6,176-84.4,175.7-80.9z M167.8-83.8c-1.2,0.7-2.3,1.6-3.2,2.6    c-1.1,1.1-2.8,0-2.5-1.5c0.3-1.6-1.9-4.1-3.4-4.3c-3.9-0.5-3.2,5.9-2.1,7.7c1.3,2.1,3.1,4,5.2,5.4c0.9,0.1,3.5-1.1,4.4-1.6    c2-0.9,4.2-2.1,5.6-3.8C174.1-82.4,171.4-86,167.8-83.8z"/>
		<path d="M77.3-14.2c0.6,2.1,1.7,5.5,0.3,7.5c-0.9,1.3-2.2,1.6-3.2,2.7c-3.4,4-7.6-8.1-8.2-9.6c-4.3-10.7-7.9-21.6-11.4-32.6    c-5.5-17.1-10.7-34.2-15.6-51.5c-2.2-0.2-4.1-1-6.1-2.4c-5-3.6-7-9.3-8.7-14.9c-2.3-7.7-4.5-15.4-6.2-23.2    c-0.8-3.5-3.9-12.2-1.6-15.6c2.7-3.9,5.9,2.8,6.7,4.6c3.2,7,5.7,14.3,8.5,21.5c0.4,1,0.8,2.1,1.2,3.2c-2-6.6-4.4-13.1-6.1-19.8    c-0.7-2.8-3.5-11.4,0.4-13.3c8.1-3.8,13.4,24.4,14.8,28.8c0.5,1.5,0.9,3.8,1.7,5.6c-0.1-1.4-0.3-2.8-0.5-4.2    c-1.2-7.6-3-15-4.2-22.6c-0.3-1.8-2.5-10,1.4-10c5.1,0,7.9,14.2,8.8,17.5c1.8,6.2,3.4,12.6,4.8,18.9c1,4.5,2.1,9.4,0.9,14.1    c-0.8,3.4-2.8,7-6,8.6c5.3,16.2,10.7,32.4,16,48.6c3.3,10.2,6.7,20.4,10,30.6C75.7-19.2,76.6-16.7,77.3-14.2z M43.8-121    C43.8-120.9,43.8-120.9,43.8-121L43.8-121z M19.1-152C19.2-152.1,19.1-152.3,19.1-152L19.1-152z M74.8-11.7    c-0.3-1.2-0.7-2.5-1.1-3.7c-1-3.2-2-6.3-3-9.5c-3.3-10.2-6.7-20.4-10-30.6c-5-15.3-10-30.6-15.1-45.9c-0.3-0.8,0.3-1.6,1-1.8    c5-1.4,6.1-8.3,5.7-12.6c-0.9-10-4.1-20.4-7.2-29.9c-1-3.2-2-6.8-3.8-9.7c0,0.3,0,0.5,0.1,0.8c0.7,5.9,2,11.7,3.2,17.5    c1,4.9,2.6,10.5,2.2,15.5c-0.1,1.9-2,4.8-3.9,2.4c-2.5-3-3.4-7.7-4.5-11.3c-1.8-6-3.4-12.1-5.7-17.9c-0.2-0.4-3-7.3-3.9-6.6    c-1.4,1,0.1,6.1,0.4,7.4c1.7,7.5,4.4,14.8,6.7,22.2c0.5,1.5,3.8,9.7-0.2,9.7c-3.6,0-5.8-8.7-6.8-11.2c-2.8-7.3-5.2-15-8.8-22    c-0.3-0.6-0.6-1.3-1-1.9c0,0.2,0,0.3,0,0.5c0.2,3.2,0.9,6.4,1.5,9.5c1.7,7.9,3.9,15.8,6.2,23.6c2,6.7,4.9,16.6,13.5,16.7    c0.7,0,1.3,0.5,1.4,1.1c4.4,15.4,9,30.7,13.9,46C59-42.7,62.4-32,66.3-21.5c1.4,3.8,2.8,7.7,4.6,11.4c0.5,1.1,1,2.1,1.7,3.1    c0.1,0.2,0.2,0.3,0.3,0.4C74.5-8.2,75.8-8.2,74.8-11.7z"/>
		<path d="M409.8-20.1c1.6,10.4-42.3,0.5-46.2-0.4c-17.7-3.6-35.3-7.9-52.8-12.6c-6.5,12-21.5,16.9-34.4,13.4    c-11.6-3.1-26.8-16.2-21.1-29.9c5.7-13.7,28.9-17.4,41.2-12.7c8.4,3.2,14.3,10.9,15.2,19.8c21.5,2.7,43,5.5,64.5,8.5    C382.1-33.1,413.9-31.6,409.8-20.1z M406.8-19.8c-0.1-0.4,0-0.8,0.1-1.1c0,0,0,0,0,0c2.3-4.9-10.9-6.9-14.7-7.5    c-8.4-1.4-16.9-2.6-25.4-3.7c-18.8-2.6-37.7-5-56.6-7.4c-0.8-0.1-1.5-0.6-1.5-1.5c-0.3-7.8-5.6-15.8-13.1-18.3    c-7.9-2.6-17.7-2-25.4,1c-4.6,1.8-10.5,5.1-12.3,10.2c-4.5,13,10.8,24.7,21.9,26.2c11.5,1.6,23.5-2.7,28.8-13.6    c0.3-0.6,1.1-0.9,1.7-0.7c15.7,4.2,31.5,8.1,47.3,11.5c11.2,2.4,22.5,4.8,33.9,6C392.9-18.6,407.5-17.2,406.8-19.8z"/>
		<path d="M422.6-190.9c-7.2,27.1-14.5,54.2-21.8,81.3c-3.6,13.5-7.3,27-11,40.5c-1.4,4.9-4.3,21.6-12.4,16.3c-5-1.1-3.5-9.8-3-13.2    c1.5-10.4,4.6-20.5,7.8-30.5c4.1-12.8,8.6-25.5,13.4-38.1c0.4-1,0.8-2,1.1-3c-0.3-0.4-0.6-0.8-0.9-1.3c-3.5-5.9-4.4-13.3-4.2-20    c0.6-14.4,5.4-41.9,23-45.8C423.8-206.8,424.4-197.6,422.6-190.9z M419.6-201.4c-1.5-2-5.9-0.1-7.5,0.8c-3.2,1.8-5.9,4.5-7.9,7.6    c-6.9,10.7-10.2,25.3-9.6,37.9c0.3,4.9,0.9,12.5,4.9,16.1c0.4,0.3,0.6,1,0.4,1.5c-3.2,8.1-29.4,78.5-21.8,81.8    c0.2,0,0.3,0.1,0.5,0.1c0.3,0.1,0.5,0.2,0.6,0.4c3.6,1.8,5.2-5.4,5.9-8.1c1.1-3.8,2.1-7.6,3.2-11.4c3.4-12.5,6.8-25,10.2-37.5    c7.2-26.6,14.3-53.3,21.4-79.9C420.6-195.1,421.7-198.6,419.6-201.4z"/>
		<path d="M286.4-142.4c-4.6-1.2-7.5-7.4-7.7-11.8c-0.3-5.7,8.6-8.6,12.7-10c6.3-2,12.1-4.5,16.9,1.7c2.9,3.7,2.6,8.8-0.1,12.4    c1.8,0.8,3.5,2,4.9,3.1c5.3,4.3,9.2,9.5,11.8,15.8c3.8,9,6.5,18.5,8.3,28c0.1,0.7-0.1,1.3-0.7,1.7c-9.1,6.3-20.3,10.2-31.3,11.3    c-0.5,0-0.9-0.1-1.1-0.4c-3.7-2-5.1-7-6.5-10.6c-1.6-4.2-3.4-8.4-4.8-12.7C286.3-122.2,283.5-133.4,286.4-142.4z M288.9-142.2    c0.2,0,0.4-0.1,0.7-0.1c-3.2,7.8-0.5,20,2.3,27.8c1.3,3.6,2.6,7.2,4,10.7c1.2,3.2,2.5,8.8,5.8,10.7c10-1,20.2-4.6,28.6-10.2    c-1.5-7.5-3.5-15-6.2-22.1c-2.3-6.2-5.1-11.9-10-16.6c-2.1-2-5.4-5.5-8.6-5.6c-0.1,0-0.2,0-0.3-0.1c0.9-0.5,1.8-1.1,2.6-1.7    c1.5-1.1,0-3.8-1.5-2.6c-0.1,0.1-0.3,0.2-0.4,0.3c1.4-2,2-4.6,1.4-6.9c0.7-1.4,0.9-2.9,0.2-4.6c-0.7-1.6-2.9-0.5-2.7,1.1    c-0.3-0.2-0.6-0.4-0.9-0.5c-4-2-7.4,0.2-11.1,1.4c-3.1,1-6.9,2.2-9.3,4.6c-0.5,0.5-0.8,1-1.1,1.5c-0.2-0.2-0.4-0.5-0.5-0.8    c-0.8-1.8-3.4-0.2-2.6,1.5c0.7,1.5,1.8,2.5,3.2,3.2c0.3,0.9,0.9,1.8,1.4,2.7c1,1.6,2.2,3.8,4.4,3.5    C286.2-144.8,287-141.9,288.9-142.2z"/>
		<path d="M288.9-142.2c0.2,0,0.4-0.1,0.7-0.1c5.3-0.9,10.8-2.6,15.5-5.4c0.9-0.5,1.8-1.1,2.6-1.7c1.5-1.1,0-3.8-1.5-2.6    c-0.1,0.1-0.3,0.2-0.4,0.3c-5.1,3.7-11.5,5.6-17.7,6.7C286.2-144.8,287-141.9,288.9-142.2z"/>
		<path d="M291.5-150.6c3.9-0.7,13.1-3.4,15.7-8c0.7-1.4,0.9-2.9,0.2-4.6c-0.7-1.6-2.9-0.5-2.7,1.1c0,0.1,0.1,0.3,0.1,0.4    c1.8,4.2-18,12.5-22.6,6.5c-0.2-0.2-0.4-0.5-0.5-0.8c-0.8-1.8-3.4-0.2-2.6,1.5c0.7,1.5,1.8,2.5,3.2,3.2    C285.1-150,288.8-150.2,291.5-150.6z"/>
		<path d="M302.2-124.9c2.9,1.2,6.6-1.3,8.9,1.7c4.7,6.1-7.6,10-8.7,3.6c-0.3-1.9-3.2-1.1-2.9,0.8c1.3,7.5,13.5,7.2,15.5,0.4    c1.1-3.9-1.8-8-5.2-9.4c-2.7-1.1-6.3,2.5-7.6-1.6c-0.6-1.8-0.6-2.9,1.6-3.7c1.6-0.6,3,0.3,3.7,1.5c1,1.7,3.6,0.2,2.6-1.5    c-1.8-3.1-5-3.7-8.2-2.5c-3.5,1.3-3.4,4.6-2.4,7.7C299.8-126.7,300.9-125.5,302.2-124.9z"/>
		<path d="M138.4-245.3c0.1-0.3,0.3-0.6,0.6-0.7c0.3-0.2,0.6-0.2,0.9-0.2c26.5,1.9,53,3.7,79.5,5.6c24.5,1.7,48.8,3.8,73.3,6.1    c24.4,2.3,48.8,5.4,73.3,5.5c4.2,0,35.5-1.6,32.2,8.1c-3.8,10.9-19.5,7.6-28.2,6.7c-24.8-2.7-49.6-5.5-74.3-8.4    c0.4,6.2-0.8,13.3-4.3,18.4c-4.9,7.1-12.2,8.9-20.3,9.3c-16.9,0.9-34.1-0.6-51-2.1c-10.4-0.9-21.1-2.9-31.6-3.2    c-12.4-0.3-25.7-2-37.3-6.6c-7.3-2.9-12.5-7.4-14.4-15.3C134.9-229.7,135-238.2,138.4-245.3z M149.8-210.7    c12.3,5.9,25.5,5.9,38.7,7.5c10.5,1.2,21,2.3,31.6,3.2c16.8,1.4,34.1,3.1,51,2.1c7.5-0.5,15-2,18.7-9.6c2.5-5.1,3.4-11.2,2.7-16.8    c-0.1-0.7,0.8-1.6,1.5-1.5c18.2,2.1,36.5,4.2,54.8,6.3c11.1,1.2,22.3,3.1,33.5,3.6c3.6,0.2,10.4-0.6,12.4-4.2    c1.8-3.4-1.5-3.7-4.3-4.3c-7.9-1.5-16.2-1.5-24.3-1.5c-24.5-0.1-48.9-3.3-73.3-5.5c-50.6-4.7-101.3-8-152-11.6    C135.8-232,138.2-216.3,149.8-210.7z"/>
		<path d="M231.3-264.7c0.1,5.4,3.4,13.8-2,17.3c-2.3,1.5-5.5,2.1-8.2,2.2c-1.9,0.1-1.9,3.1,0,3c3.7-0.2,7.4-1.1,10.5-3.1    c5.6-3.6,3.4-10.8,2.9-16.4c-0.7-8.2,1.3-20.6,12.4-18.4c5.3,1,5.5,6.4,4.7,10.7c-1,5-4.8,5.7-8.1,2.4c-1.4-1.4-3.5,0.7-2.1,2.1    c4.7,4.7,10.4,3.8,12.8-2.5c3-7.8-1-15.7-9.6-15.9C234.3-283.5,231.2-273,231.3-264.7z"/>
		<path d="M224.3-320.2c0.8-4.5,5.9-7.1,9.9-4.9c4.2,2.4,4.6,8.3,3.7,12.4c-2.2,9.8-9,19-13.2,28c-3.4,7.3-11,25.1-1.3,31.4    c1.6,1.1,3.1-1.5,1.5-2.6c-4.5-2.9-3-11.8-1.9-16.1c3.1-12.5,11.1-23,16-34.7c2.7-6.5,4.2-15.3-2.3-20.3c-5.5-4.2-14-1-15.2,5.9    C221-319.1,223.9-318.3,224.3-320.2z"/>
		<line class="st1" x1="216" y1="-246" x2="217" y2="-246"/>
		<path d="M188-288c4.9,3.4,15.3,6.5,19.5,0.2c2.6-3.8,2.2-10.1-1.6-13.1c-1-0.8-2.1-1.1-3.3-1c-1.9,0.1-1.9,3.1,0,3    c5.5-0.3,3.8,9.8-0.3,11.3c-8.5,3.1-17.8-5-16.6-13.5c1-6.7,6.2-9.7,12.1-11.8c9.7-3.4,17.5,0.1,20.6,10.1    c2.9,9.2-2,17.2-6.1,25.1c-1.3,2.5-1.9,5.2-3.5,7.5c-1.5,2.1-3.1,3.9-4,6.4c-2.2,5.9-3.8,13.4,1.6,18.1c2.5,2.2,6.7,3.1,9.7,3.1    c2,0,2-3,0-3c0,0-4.1-0.5-5.9-1.3c-6.2-2.7-4.5-9.9-2.8-15c1.1-3.4,3.6-5.7,5.2-8.6c1.9-3.5,3.3-7.4,5.2-10.9    c4.9-9,6.1-18.7,1.1-28c-4-7.5-12.4-8.7-20-6.8c-6.2,1.6-12.3,4.7-15,10.8C181.3-299.6,182.4-291.9,188-288z"/>
		<path d="M164.6-231c3.3-7.3,9.3-4,12.9,1.1c4.4-5.1,11.7-4.7,12.8,3.2c1,6.8-8.5,12.3-13.5,15.1c0,0-0.1,0-0.1,0.1    c-0.4,0.2-0.9,0.3-1.4,0C168.3-215,160.8-222.6,164.6-231z M166.8-224.5c1.3,4.4,5.2,7.7,9.2,9.9c3.2-1.9,6.5-4.1,9-6.9    c1.5-1.7,4.6-9.5-0.4-9.2c-2.4,0.2-4.7,1.9-5.9,3.9c-0.6,1-2,0.9-2.6,0c-0.9-1.4-2-2.8-3.3-4c-1-0.9-3.1-2.7-4.4-1.1    C166.9-230,166-226.9,166.8-224.5z"/>
		<path d="M202.5-229.6c3.1-5.9,9-0.4,12.4,3.1c1.6-2,4-4.4,6.5-4.2c3.8,0.3,6.8,4.6,6.7,8.3c-0.2,6.8-9.4,11.5-14.7,14.1    c-0.1,0.1-0.2,0.1-0.3,0.1c-0.4,0.1-0.8,0.1-1.2-0.1C205.3-212.3,198.3-221.7,202.5-229.6z M204.5-224.5    c0.2,5.5,3.7,10.3,8.3,13.2c3.6-1.8,7.3-4,10-6.9c1-1,2.8-2.8,2.3-4.5c-0.4-1.5-1.3-5.3-3.6-5c-2.3,0.2-4,2.5-5.1,4.3    c-0.6,1.1-1.9,0.8-2.6,0C211.5-226.2,204.2-233.6,204.5-224.5z"/>
		<path d="M239.4-223.5c2.5-7.4,9.7-4.6,12.9,0.3c5-4.3,12.5-6.4,13.2,3c0.5,8.3-7.3,13.5-14.5,15.5c-0.6,0.2-1.1,0-1.4-0.3    c0,0,0,0-0.1,0C244.4-209.3,236.9-216.2,239.4-223.5z M243.9-215.3c2,2.8,4.4,5.3,7,7.5c4.4-1.4,10.1-4.3,11.3-8.9    c1-4.1-0.6-9.5-5.3-6.3c-1.4,1-2.7,2.1-3.9,3.3c-0.8,0.9-2.1,0.3-2.5-0.7c-0.7-1.8-4.1-6.4-6.5-4.6    C240.4-222.3,241.9-218.2,243.9-215.3z"/>
		<path d="M312.8-308.9c0.1,0,0.1-0.1,0.2-0.1C312.9-309,312.9-308.9,312.8-308.9z"/>
		<path d="M312.3-307.5c0.2,1,1.6,1.7,2.6,0.8c0.9-0.8,1.9-1.6,2.9-2.3c7.2,0.5,14.5,1,21.7,1.3c7.3,0.3,14.4-0.8,21.4-2.5    c1.5,0.7,2.9,1.5,4.3,2.3c1.7,1,3.2-1.6,1.5-2.6c-0.5-0.3-0.9-0.5-1.4-0.8c0.1,0,0.1,0,0.2,0c1-0.3,1.8,0.5,1.9,1.4    c0.2,2.1,0.4,4.2,0.4,6.4c-0.6,0.6-1.2,1.3-1.8,2c-1.1,1.4,0.6,3.3,1.8,2.4c0,0.8-0.1,1.7-0.1,2.5c-1.5,0.9-2.8,2.1-3.3,3.5    c-0.6,1.8,2.1,2.6,2.8,0.9c-0.2,1.5-0.4,2.9-0.7,4.3c-0.6-0.2-1.1-0.3-1.5-0.4c-1.8-0.6-2.6,2.3-0.8,2.9c0.5,0.2,1,0.3,1.5,0.4    c-0.3,0.9-0.6,1.8-0.9,2.7c-0.4-0.2-0.8-0.4-1.1-0.6c-1.7-1-3.2,1.6-1.5,2.6c0.5,0.3,1,0.5,1.4,0.8c-1.3,2.7-2.8,5.4-4.4,8    c-0.3,0.4-0.6,1-1,1.5c2.6,2.9,5.6,6,7.1,9.5c0.4,0.9,0.1,1.9-0.9,2.2c-12.3,4.3-26.2,5.5-39,3.9c-0.9,0-1.9-0.9-1.5-2    c0-0.2,0.1-0.4,0.3-0.6c1.8-3.5,3.6-7,5.4-10.4C315.8-275.1,311.4-293.1,312.3-307.5z M315.2-306.1c-0.5,13.6,3.8,30.2,17.2,36.6    c0.3,0.1,0.5,0.4,0.6,0.6c-0.6,0-1.1-0.1-1.7-0.2c-1.9-0.2-1.9,2.8,0,3c0.3,0,0.6,0,0.9,0.1c-1.5,2.9-3,5.8-4.5,8.7    c11.4,1.1,23.4,0,34.3-3.5c-1.6-2.8-4.1-5.3-6.2-7.7c0.3-0.1,0.6-0.2,0.9-0.3c1.8-0.7,1-3.6-0.8-2.9c-0.3,0.1-0.5,0.2-0.8,0.3    c0.2-0.2,0.5-0.4,0.8-0.4c0.3-0.4,0.6-0.8,0.9-1.3c1.1-1.8,2.2-3.6,3.1-5.4c2.5-4.6,3.9-9.4,4.4-14.6c0.5-4.9,0.6-9.9,0.3-14.8    c-8.2,2.1-16.5,3.7-25,3.3C331.4-305,323.3-305.6,315.2-306.1z"/>
		<path d="M335.6-315.1c2.4-0.2,4.9-0.2,7.3,0c-0.2-0.9-0.3-2-0.3-3c-2.4-0.2-4.8-0.2-7.2,0C335.4-317.1,335.4-316.1,335.6-315.1z"/>
		<path d="M346.1-314.7c5.1,0.8,10.1,2.4,14.7,4.6c1.5,0.7,2.9,1.5,4.3,2.3c1.7,1,3.2-1.6,1.5-2.6c-0.5-0.3-0.9-0.5-1.4-0.8    c-6-3.4-12.8-5.7-19.7-6.6C345.6-316.7,345.7-315.7,346.1-314.7z"/>
		<path d="M314.9-306.7c0.9-0.8,1.9-1.6,2.9-2.3c4.5-3.2,9.6-5,14.9-5.9c-0.2-1-0.2-2-0.2-3c-7,1-13.8,3.8-19.5,8.8    c-0.1,0-0.1,0.1-0.2,0.1c0,0-0.1,0.1-0.1,0.1c-0.4,0.4-0.6,0.9-0.5,1.3C312.5-306.5,313.9-305.8,314.9-306.7z"/>
		<path d="M366-301.5c-1.1,1.4,0.6,3.3,1.8,2.4c0.1-0.1,0.2-0.2,0.3-0.3c1.6-2,3.7-3.8,6.1-4.8c6.1-2.5,10,5.6,11.1,10.2    c1,4.1,0.6,8.9-3.4,10.8c-5.3,2.5-11.7,3.5-17,0.8c-0.4-0.2-0.8-0.4-1.1-0.6c-1.7-1-3.2,1.6-1.5,2.6c0.5,0.3,1,0.5,1.4,0.8    c5.9,2.9,12.9,2,18.8-0.6c5.2-2.3,6.8-6.9,6-12.5c-0.8-5.6-4.5-14.5-11.3-14.9c-3.6-0.2-7,1.6-9.5,4.1    C367.1-302.8,366.5-302.2,366-301.5z"/>
		<path d="M378.5-290.2c0.5-4-1.9-8.2-6.3-7.9c-1.4,0.1-3.1,0.6-4.6,1.5c-1.5,0.9-2.8,2.1-3.3,3.5c-0.6,1.8,2.1,2.6,2.8,0.9    c0,0,0-0.1,0-0.1c0.5-1.4,3.5-2.5,4.9-2.8c3.1-0.6,3.9,4,2.9,6.1c-1.3,2.6-5.7,1.9-8.6,1.1c-0.6-0.2-1.1-0.3-1.5-0.4    c-1.8-0.6-2.6,2.3-0.8,2.9c0.5,0.2,1,0.3,1.5,0.4C370.9-283.7,377.7-283.8,378.5-290.2z"/>
		<path d="M333-268.9c-0.6,0-1.1-0.1-1.7-0.2c-1.9-0.2-1.9,2.8,0,3c0.3,0,0.6,0,0.9,0.1c7.8,0.8,16.2,0.1,23.6-2.5    c0.3-0.1,0.6-0.2,0.9-0.3c1.8-0.7,1-3.6-0.8-2.9c-0.3,0.1-0.5,0.2-0.8,0.3C348-268.9,340.3-268.3,333-268.9z"/>
		<path d="M332.7-314.8c0.2,1.3,0.6,2.6,1.3,4c0.9,1.7,3.4,0.2,2.6-1.5c-0.5-0.9-0.8-1.9-1-2.8c-0.2-1-0.2-2-0.2-3    c0.5-7.7,7.6-15.1,2.5-22.8c-1.6-2.4-4.9-4.4-7.9-3.8c-4.2,0.8-5.7,4.7-6.4,8.5c-0.3,1.9,2.6,2.7,2.9,0.8c0.7-4.2,3.4-8.6,7.8-5    c3,2.5,2.8,6.3,1.7,9.7c-1.4,4.4-3.4,8.6-3.6,13C332.5-316.8,332.5-315.8,332.7-314.8z"/>
		<path d="M344.9-311.3c1.3,1.4,3.4-0.7,2.1-2.1c-0.4-0.4-0.6-0.8-0.9-1.3c-0.4-0.9-0.6-2-0.5-3.1c0.1-2.3,0.9-4.7,1.6-6.4    c1-2.4,2.9-4.9,5.7-4.9c4.1,0,4.7,6.6,0.2,5.3c-1.9-0.5-2.7,2.4-0.8,2.9c3.7,1.1,6.8-1.4,7.2-5.2c0.4-4.2-4.9-6.3-8.3-5.9    c-5.3,0.7-8.7,7.8-8.6,13.9c0,1,0.1,2.1,0.3,3C343.3-313.6,343.9-312.3,344.9-311.3z"/>
		<path d="M771.3-138.4c-0.2,0.1-0.4,0.3-0.5,0.5c0.1-0.1,0.2-0.2,0.3-0.3C771.2-138.2,771.2-138.3,771.3-138.4z"/>
		<path d="M773.4-137.7c-0.1-0.1-0.2-0.2-0.3-0.4c0.5,0.6,0.6,1.5,0,2.2c-1.1,1.2-2.3,2.3-3.7,3.3c-3.5,10.7-11.4,19.3-20.7,25.5    c-9.8,6.5-23.6,18.9-36.5,16.7c2.7-1.5,4.9-3.6,5.7-6.8c1.8-6.9,3-17.2,11-19.7c1-0.3,1.6-1.6,0.8-2.5c-1.7-1.8-3.1-4-3.8-6.4    c-1-3.4,1.7-5.4,4.6-6.4c4.3-1.5,6.6,3.7,7.5,6.8c0.3,1.1,2.1,1.8,2.7,0.5c1.7-3.3,4.6-5.5,8.4-5.2c-0.1,0-0.1,0-0.2-0.1    c-1.5-0.6-1.1-2.7,0.1-3c-3.6-0.2-6.9,1.4-9.2,4.1c-1.1-2.5-2.6-4.9-5.2-5.8c-3.8-1.4-8,0.2-10.6,3.3c-3.1,3.7-0.7,9,2,12.5    c-4.5,2.3-6.9,6.8-8.6,11.6c-1.1,3-1.7,6.2-2.5,9.3c-0.9,3.6-4.4,5.5-7.7,6.4c-0.4,0.1-0.6,0.3-0.8,0.5c0.7-0.3,1.6-0.2,2.1,0.5    c0.6,1,1.3,1.9,1.9,2.9c13.6,3.3,27.9-8.8,38.3-15.9c10.9-7.4,20.5-16.9,24-29.8c12.5,18.2,25,36.5,37,55    c2.2,3.3,4.4,6.7,6.3,10.2c1.9,3.7-10.8,12.2-13.2,14.1c-14.1,11-30.2,24-48.6,26.3c0.3,0.4,0.7,0.8,1,1.2    c0.4,0.5,0.4,1.1,0.2,1.6c18.3-2.6,34.1-15.3,48.3-26.1c4.8-3.6,14.2-9.3,15.6-15.7c0.6-2.8-2.8-6.7-4.2-8.8    C801.8-96.7,787.5-117.2,773.4-137.7z"/>
		<path d="M749-130.2c0.1,0,0.1,0,0.2,0.1c6.8,2.7,14.4,1.6,20.2-2.5c1.3-0.9,2.6-2,3.7-3.3c0.6-0.7,0.5-1.6,0-2.2    c-0.4-0.5-1.1-0.8-1.8-0.3c-0.1,0.1-0.2,0.1-0.2,0.2c-0.1,0.1-0.2,0.2-0.3,0.3c-5.3,5.7-13.5,7.7-20.9,4.8    c-0.3-0.1-0.6-0.1-0.8-0.1C747.9-132.9,747.5-130.8,749-130.2z"/>
		<path d="M755.2-26.5c-0.3-0.4-0.7-0.8-1-1.2c-15.4-19.3-30.3-39.2-43.7-59.9c-0.6-1-1.3-1.9-1.9-2.9c-0.5-0.8-1.4-0.9-2.1-0.5    c-0.7,0.3-1.1,1.1-0.6,1.9c14.4,22.4,30.4,43.9,47,64.7c0.8,1,2,0.5,2.4-0.4C755.6-25.4,755.6-26,755.2-26.5z"/>
		<path d="M755.8-78.4c0.5-2.3,2-3.4,3.9-4c-0.8-1.2-1.2-2.5-0.9-4.2c0.3-1.8,2.8-3.6,4.4-4.1c3.9-1.3,7.5,0.6,9.6,3.8    c0.5-0.1,0.9-0.1,1.7-0.1c0.3,0,0.5,0.1,0.7,0.2c2.7,0.9,5.5,3.1,5.9,6.1c0.3,2.5-2,4.3-4.1,5.3c-0.1,2.2-1.4,4-3.6,4.4    c-1.1,3.4-4,5.6-7.9,4.9c-3.6-0.7-4.6-3.3-4.3-6.4C758.5-73.5,755.1-75.2,755.8-78.4z M763.8-82.3c1,1,0,2.5-1.2,2.5    c-2.2-0.4-3.1,0.7-2.5,3.5c1,0.5,2,0.9,3.1,1.1c0.9,0.2,1.1,1.1,1,1.9c-0.8,2.4,0.4,3.8,3.8,4c0.7-0.5,1.4-1,2-1.4    c0.4-0.7,0.6-1.5,0.7-2.3c0.1-0.6,0.9-1.1,1.5-1.1c0.6-0.7,1.1-1.3,1.7-2c-0.1-0.6,0.1-1.4,0.8-1.7c1.3-0.5,4.7-1.9,2.4-4.3    c-0.8-1-1.7-1.6-2.9-1.9c-0.6,0.1-1.2,0.2-1.9,0.3c-0.6,0.2-1.4-0.2-1.7-0.8c-0.9-1.8-2.6-3.8-4.9-3.7    C761.9-88.1,761.3-84.7,763.8-82.3z"/>
		<path d="M765.4-76.9c-1.1-1.7-0.3-3.8,1.2-4.8c1.5-1,3.5-0.8,4.7,0.6c0.1,0.1,0.1,0.1,0.1,0.2c0,0,0.1,0.1,0.1,0.1    c1.1,1.7,0.3,4-1.4,4.9C768.5-75,766.5-75.3,765.4-76.9z M768-78.5c0.4,0.4,1.1-0.2,0.9-0.8c-0.2-0.1-0.4-0.2-0.7,0    C768-79.1,767.8-78.7,768-78.5z"/>
		<path d="M532-286.1c-0.5,0.4-1.1,0.3-1.4-0.1c0.4,1.6,0.7,3.1,1.2,4.7c0-0.5,0.2-1.1,0.9-1.2c0.3-0.1,0.6-0.1,1-0.2    c-0.4-1.2-0.7-2.4-1-3.6C532.4-286.4,532.2-286.3,532-286.1z"/>
		<path d="M472-248.6c4.9,2,9.8,2.5,15,3.2c5.4,0.7,10.7,1.5,16.1,2.3c6.4,0.9,12.8,2,19.2,2.9c5.9,0.9,13.3,1.6,18.8-1.3    c5.5-2.9,5.7-8.5,3.9-14.6c-0.1,0.3-0.1,0.5-0.2,0.8c-0.2,1-1.5,1.2-2,0.6c0.2,1,0.4,2,0.5,3c0.6,5.4-1.7,8.5-7.1,9.5    c-4,0.7-8,0.6-12,0.1c-7-0.9-14-2.1-21-3.1c-4.2-0.7-8.5-1.3-12.7-1.9c-4.3-0.6-8.8-0.7-13.1-1.9c-6-1.7-14.2-5.1-11.2-12.6    c1.3-3.2,2.6-6.1,5.3-8.3c3.2-2.7,6.5-5.4,9.7-8.1c5.7-4.7,13.3-9.3,16.5-16.4c-0.4-0.4-0.9-0.7-1.3-1.2c-0.6-0.6-0.1-1.7,0.7-1.8    c0.6-0.1,1.2-0.1,1.8-0.2c1.5-4.4,4-8.4,8.8-9.9c4.5-1.4,9.7-1.1,13.5,1.9c3.9,3.1,6,7.3,7.4,11.8c0.8,0.4,1.6,0.8,2.4,1.2    c0.1,0,0.1,0.1,0.2,0.1c0,0,0-0.1,0-0.1c-0.8-3.9-2.1-7.7-4.7-10.8c-2.1-2.6-4.6-4.6-7.5-5.8c-0.2,0.4-0.5,0.8-0.7,1.1    c-0.8,1.2-2.6-0.2-1.8-1.3c0.1-0.1,0.2-0.3,0.4-0.5c-1.2-0.3-2.5-0.6-3.8-0.6c0,0.2,0.1,0.5,0.2,0.7c0.4,1.4-1.8,1.7-2.2,0.4    c-0.1-0.3-0.1-0.7-0.2-1c-1.1,0.1-2.2,0.3-3.3,0.7c-3.4,1.1-6.6,3.2-8.5,6.3c-1.9,3.1-2.5,6.7-4.3,9.8c0.4,0.2,0.7,0.5,1,0.7    c1.1,0.9-0.2,2.7-1.3,1.8c-0.3-0.2-0.6-0.5-0.9-0.7c-0.9,1.1-1.9,2.2-2.9,3.2c0.2,0.4,0.5,0.7,0.7,1c0.9,1.1-0.8,2.5-1.7,1.4    c-0.2-0.3-0.4-0.6-0.6-0.9c-2,1.7-4,3.3-6.1,4.9c-3.7,3-7.3,6.1-11.1,9.1c-4.1,3.3-8.4,8.5-8.6,14.1    C463-253.8,467.5-250.4,472-248.6z"/>
		<path d="M530.6-287.9c0.4-0.4,0.9-0.7,1.4-0.9c-0.2-0.9-0.4-1.7-0.6-2.6c-0.1,0.3-0.3,0.6-0.7,0.7c-0.4,0.1-0.8,0.2-1.2,0.4    c0.2,0.9,0.5,1.9,0.7,2.9C530.4-287.6,530.5-287.7,530.6-287.9z"/>
		<path d="M531.9-281c0.3,1.1,0.6,2.2,1,3.2c2.7,7.5,7.7,14.5,9.7,22.3c0.3-1.5,0.6-2.9,1.1-4.3c-2.5-6.4-6.3-12.7-7.8-16.4    c-0.3,0.1-0.6,0.3-1,0.4c-1.3,0.6-2.2-1.5-0.9-2c0.4-0.2,0.8-0.3,1.1-0.5c-0.3-0.9-0.6-1.7-0.9-2.6c-0.4,0.1-0.9,0.3-1.3,0.3    C532.5-280.4,532.1-280.7,531.9-281z"/>
		<path d="M534.9-275.8c0.3-0.1,0.6-0.3,1-0.4c3.5-1.4,6.9-2.9,10.4-4.4c4.1-1.8,8.5-3.4,12.3-5.7c1,1.1,2.1,1.8,3.4,2.4    c-8.2,6-15.2,14.5-18.2,24.2c-0.4,1.4-0.8,2.9-1.1,4.3c0,0,0,0,0,0c-0.1,0.4,0,0.7,0.2,0.8c0.5,0.6,1.8,0.4,2-0.6    c0-0.3,0.1-0.5,0.2-0.8c2.3-11.2,10.8-21.2,20.1-27.5c0.9-0.6,0.3-1.8-0.6-2c-2.1-0.4-3.6-1.4-4.9-3c-0.4-0.5-1.1-0.5-1.6-0.2    c-4.1,2.7-9,4.4-13.5,6.3c-3.2,1.4-6.3,2.7-9.5,4c-0.4,0.2-0.7,0.3-1.1,0.5C532.7-277.2,533.6-275.2,534.9-275.8z"/>
		<path d="M518.1-317.4c-2.6-0.8-6-0.4-7,2.6c-0.4,1.4-0.5,2.9-0.2,4.3c0.1,0.3,0.1,0.7,0.2,1c0.4,1.4,2.6,1,2.2-0.4    c-0.1-0.2-0.1-0.5-0.2-0.7c-0.2-0.9-0.2-1.8-0.1-2.7c0.4-2.2,2.6-2.9,4.5-1.9c1.8,0.9,0.3,3.7-0.7,5.2c-0.1,0.2-0.3,0.4-0.4,0.5    c-0.8,1.2,1,2.5,1.8,1.3c0.2-0.3,0.5-0.7,0.7-1.1C520.6-311.9,521.9-316.2,518.1-317.4z"/>
		<path d="M490.5-294.8c0.2,0.7,0.4,1.3,0.6,2c0,0,0,0.1,0,0.1c0.1,0,0.2,0,0.4,0c0.8,0.1,1.5,0.4,2.1,0.9c0.3,0.2,0.6,0.4,0.9,0.7    c1.1,0.9,2.4-0.9,1.3-1.8c-0.3-0.2-0.6-0.5-1-0.7C493.5-294.5,491.9-295,490.5-294.8z"/>
		<path d="M491.4-287.7c-0.2-0.3-0.5-0.6-0.7-1c-0.5-0.8-0.9-1.6-0.9-2.5c0-0.2,0-0.3,0.1-0.5c-0.4-0.1-0.8-0.4-0.9-0.9    c-0.1-0.5-0.2-0.9-0.4-1.3c-0.3,0.4-0.6,0.8-0.8,1.4c-0.6,1.7,0.3,3.7,1.4,5.3c0.2,0.3,0.4,0.6,0.6,0.9    C490.5-285.2,492.3-286.6,491.4-287.7z"/>
		<path d="M536.5-286c0.3,1.6-1.4,2.5-2.9,3c-0.3,0.1-0.7,0.2-1,0.2c-0.7,0.1-0.9,0.7-0.9,1.2c0,0.2,0.1,0.3,0.1,0.5    c0.2,0.4,0.6,0.6,1.1,0.5c0.4-0.1,0.8-0.2,1.3-0.3c2.7-0.9,5.4-2.9,4.3-6c-0.5-1.4-1.3-2.2-2.3-2.5c-0.2,0.7-0.3,1.5-0.4,2.2    C536.2-287,536.4-286.6,536.5-286z"/>
		<path d="M530.6-287.9c-0.2,0.1-0.3,0.3-0.3,0.4c-0.2,0.4,0,0.9,0.3,1.2c0.4,0.4,0.9,0.5,1.4,0.1c0.2-0.1,0.4-0.3,0.6-0.4    c0.3-0.2,0.6-0.4,0.9-0.5c0.1-0.8,0.3-1.6,0.5-2.4c-0.7,0.1-1.3,0.4-1.9,0.7C531.6-288.5,531.1-288.2,530.6-287.9z"/>
		<path d="M497.7-294.4c-0.4-0.4-0.9-0.7-1.3-1.2c-0.6-0.6-0.1-1.7,0.7-1.8c0.6-0.1,1.2-0.1,1.8-0.2c9.7-1.1,20.7-0.4,29.7,3.8    c0.8,0.4,1.6,0.8,2.4,1.2c0.1,0,0.1,0.1,0.2,0.1c0.3,0.3,0.4,0.6,0.3,1c0,0,0,0.1,0,0.1c-0.1,0.3-0.3,0.6-0.7,0.7    c-0.4,0.1-0.8,0.2-1.2,0.4C519.3-287.2,506.3-287,497.7-294.4z M500.2-295.4c6.9,5.6,18.3,5.8,27.3,3.4    C519.3-295.6,508.7-296.4,500.2-295.4z"/>
		<path d="M489.8-291.7c0.7,0.1,1.4-0.3,1.3-1.1c0,0,0-0.1,0-0.1c-0.2-0.7-0.4-1.3-0.6-2c-1.7-4.8-4.9-9.3-7.6-13.4    c-4.1-6.3-12.3-18.1-1.4-23c6.8-3.1,13.8,2.4,20.2,4.4c5.8,1.7,11.4,1.7,17.2,0.2c6.8-1.8,13.8-3.2,20.2,0.9    c5.4,3.4,10.8,9.9,7.9,16.7c-2.3,5.2-6.4,8.8-10.1,13c-1.6,1.8-2.3,4.3-2.8,6.7c-0.2,0.8-0.3,1.7-0.5,2.4c0,0.1-0.1,0.3-0.1,0.4    c-0.3,1.4,2,1.6,2.2,0.2c0-0.3,0.1-0.5,0.1-0.8c0.1-0.7,0.3-1.4,0.4-2.2c0.3-1.5,0.8-3,1.4-4.3c1.1-2,3.2-3.6,4.8-5.3    c3.7-4.1,8.5-9.9,7.4-16c-1.1-5.8-5.4-10.7-10.6-13.4c-6.5-3.4-12.9-2.6-19.9-0.9c-3.8,1-7.7,1.7-11.7,1.3    c-4.4-0.5-8.3-2.2-12.4-3.9c-5.8-2.4-12.7-4.5-17.9,0.7c-5.2,5.3-4,11.8-0.6,17.8c3.6,6.4,9.4,12.4,11.6,19.6    c0.1,0.4,0.3,0.9,0.4,1.3C489-292,489.4-291.7,489.8-291.7z"/>
		<path d="M517.5-270.1c0.9,5.4-4.1,8.6-8.8,9.7c-0.3,0.1-0.5,0-0.7-0.1c-1.6-0.4-3.3-2.4-4.2-3.4c-1.7-1.8-3.7-4.7-3-7.4    c0.7-2.5,3.1-4.1,5.6-3.2c1.4,0.5,2.4,1.8,3.3,3.2C512-273.8,516.9-274.1,517.5-270.1z M514.2-271c-1.1-0.3-3.3,0.9-3.5,2.1    c-0.2,1.1-1.7,1.4-2.1,0.3c-0.4-1-0.9-1.8-1.6-2.7c-1.9-2.5-4.8-0.7-3.9,2.1c0.5,1.6,1.7,3,2.8,4.1c0.5,0.5,2,2.1,2.6,2.3    c1.8-0.4,3.6-1.3,5-2.4C514.8-266,517-270.3,514.2-271z"/>
		<path d="M504.6-150.2c-1.9,10.4-4.5,20.7-7.2,30.9c-4.2,15.9-8.6,31.8-13.2,47.6c1.6,1.3,2.7,2.8,3.5,4.9    c2.1,5.2,0.8,10.7-0.6,15.8c-2,7.1-4.1,14.1-6.6,21c-1.1,3.1-2.9,11.4-6.5,12.9c-3.9,1.7-3.2-5-2.9-6.9c0.9-7,2.7-13.9,4-20.8    c0.2-1,0.4-2,0.6-3.1c-1.7,6.1-3,12.3-5,18.3c-0.8,2.5-2.9,10.6-6.9,10.1c-8.1-1,1.6-25.5,2.7-29.6c0.4-1.4,1.2-3.4,1.4-5.2    c-0.6,1.1-1.2,2.3-1.7,3.5c-2.8,6.4-5.1,13.1-7.8,19.6c-0.7,1.6-3,9-6,7.1c-4-2.5,0.9-14.9,1.7-17.9c1.7-5.7,3.5-11.4,5.6-17    c1.5-4,3.1-8.3,6.2-11.4c2.3-2.2,5.6-4,8.9-3.7c3.8-15.2,7.7-30.3,11.5-45.5c2.4-9.6,4.9-19.1,7.3-28.6c0.6-2.3,1.1-4.7,1.9-7    c0.6-1.9,1.4-5.1,3.4-6c1.3-0.6,2.5-0.1,3.8-0.5C507.5-163.1,504.8-151.6,504.6-150.2z M473-19.8C472.8-19.7,472.8-19.5,473-19.8    L473-19.8z M502.8-158.4c0-0.2,0-0.3,0-0.4c-2.1,0.4-3-0.2-4,3c-0.4,1.1-0.7,2.2-1,3.4c-0.8,2.9-1.5,5.9-2.3,8.8    c-2.5,9.5-4.9,19.1-7.3,28.7c-3.6,14.3-7.3,28.6-10.9,42.9c-0.2,0.7-1,1.1-1.7,0.9c-4.6-1.4-8.8,3.4-10.6,6.9    c-4.2,8.2-6.8,17.8-9.1,26.7c-0.8,3-1.7,6.2-1.8,9.4c0.1-0.2,0.2-0.4,0.3-0.7c2.4-4.9,4.2-10.1,6.2-15.1c1.7-4.3,3.1-9.4,5.9-13.1    c1-1.4,3.9-2.7,4.2,0.1c0.4,3.6-1.2,7.6-2.1,11c-1.6,5.5-3.3,11-4.4,16.7c-0.1,0.4-1.2,7.1-0.2,7c1.6-0.1,3-4.8,3.3-5.9    c2.4-6.7,3.9-13.6,5.7-20.4c0.4-1.4,1.8-9.4,4.9-7.4c2.8,1.8,0.2,9.6-0.3,12c-1.4,7.1-3.4,14.2-4,21.4c-0.1,0.6-0.1,1.3-0.2,2    c0.1-0.1,0.2-0.2,0.2-0.4c1.4-2.6,2.5-5.3,3.5-8.1c2.6-7,4.8-14.2,6.8-21.3c1.7-6.2,4.4-15.3-2.2-19.5c-0.5-0.3-0.8-1-0.6-1.6    c4.2-14.1,8.1-28.3,11.9-42.5c2.6-9.9,5.2-19.9,7.4-30c0.8-3.7,1.6-7.4,2-11.1C502.7-156.2,502.8-157.3,502.8-158.4z M469.1-55.9    C469.1-55.9,469.1-55.9,469.1-55.9L469.1-55.9z"/>
		<path d="M689.8-37.1c1.6,10.4-42.3,0.5-46.2-0.4c-17.7-3.6-35.3-7.9-52.8-12.6c-6.5,12-21.5,16.9-34.4,13.4    c-11.6-3.1-26.8-16.2-21.1-29.9c5.7-13.7,28.9-17.4,41.2-12.7c8.4,3.2,14.3,10.9,15.2,19.8c21.5,2.7,43,5.5,64.5,8.5    C662.1-50.1,693.9-48.6,689.8-37.1z M686.8-36.8c-0.1-0.4,0-0.8,0.1-1.1c0,0,0,0,0,0c2.3-4.9-10.9-6.9-14.7-7.5    c-8.4-1.4-16.9-2.6-25.4-3.7c-18.8-2.6-37.7-5-56.6-7.4c-0.8-0.1-1.5-0.6-1.5-1.5c-0.3-7.8-5.6-15.8-13.1-18.3    c-7.9-2.6-17.7-2-25.4,1c-4.6,1.8-10.5,5.1-12.3,10.2c-4.5,13,10.8,24.7,21.9,26.2c11.5,1.6,23.5-2.7,28.8-13.6    c0.3-0.6,1.1-0.9,1.7-0.7c15.7,4.2,31.5,8.1,47.3,11.5c11.2,2.4,22.5,4.8,33.9,6C672.9-35.6,687.5-34.2,686.8-36.8z"/>
		<path d="M856.1-120.6c0.7,4.7,4.5,20.1-4.4,18.6c-4.7,1-6.7-7-7.6-10.1c-2.7-9.4-3.9-19.3-5-29c-1.4-12.5-2.4-25.1-3.1-37.7    c-0.1-1-0.1-2-0.2-3c-0.4-0.2-0.9-0.5-1.3-0.8c-5.3-3.7-8.9-9.7-11.2-15.5c-5-12.5-11.4-37.9,2.3-47.9c7-5.2,11,2.4,12.1,8.8    c4.1,25.9,8.2,51.8,12.3,77.8C852.1-146.5,854.2-133.5,856.1-120.6z M854.3-113.9c-0.5-3.7-1.1-7.3-1.7-11    c-1.8-12-3.7-24-5.6-35.9c-4-25.5-8.1-51-12.1-76.5c-0.4-2.6-0.8-6.1-3.7-7.6c-2-1.1-5.1,2.1-6.1,3.5c-2.1,2.8-3.3,6.1-3.8,9.5    c-1.8,11.8,0.9,25.5,6.2,36.1c2.1,4.1,5.5,10.3,10.3,11.9c0.4,0.1,0.9,0.6,0.9,1.1c0.4,8.2,4.8,78.3,12.5,78.2    c0.1,0,0.3-0.1,0.5-0.1c0.2,0,0.4,0,0.6,0C856-104.5,854.7-111.3,854.3-113.9z"/>
		<path d="M631.1-161c-0.2-4.7,5-9.3,9.1-10.7c5.4-1.9,10.7,5.8,13.2,9.4c3.7,5.4,7.7,10.3,3.2,16.7c-2.8,3.9-7.7,5-11.9,3.4    c-0.2,2-0.9,4-1.6,5.6c-2.7,6.3-6.5,11.5-11.8,15.8c-7.5,6.2-15.9,11.4-24.5,15.9c-0.6,0.3-1.3,0.3-1.8-0.2    c-8.6-7-15.5-16.6-19.6-26.9c-0.2-0.5-0.1-0.9,0.1-1.2c0.8-4.1,5.3-6.9,8.3-9.3c3.6-2.8,7.1-5.6,10.9-8.1    C611.7-155.5,621.7-161.4,631.1-161z M631.9-158c-8.4-0.9-19.3,5.1-26,10c-3.1,2.2-6.1,4.5-9.2,6.8c-2.7,2.1-7.7,4.9-8.6,8.6    c3.8,9.3,10.1,18.1,17.8,24.5c6.8-3.6,13.4-7.6,19.5-12.2c5.3-4,10-8.3,13.1-14.2c1.3-2.5,3.7-6.7,2.9-9.8c0-0.1,0-0.2,0-0.3    c0.8,0.7,1.6,1.4,2.4,2c1.5,1.1,3.6-1,2.1-2.2c-0.1-0.1-0.3-0.2-0.4-0.3c2.3,0.8,5,0.6,7-0.6c1.5,0.3,3.1,0.1,4.5-1.1    c1.4-1.1-0.4-2.9-1.8-2.3c0.1-0.3,0.2-0.7,0.3-1c0.8-4.4-2.3-7-4.5-10.3c-1.9-2.7-4-6.1-7-7.7c-0.6-0.3-1.2-0.5-1.8-0.6    c0.2-0.3,0.4-0.5,0.6-0.7c1.5-1.3-0.7-3.3-2.2-2.1c-1.3,1.1-1.9,2.5-2.1,4c-0.8,0.6-1.5,1.3-2.2,2.1c-1.3,1.4-3.1,3.2-2.1,5.2    c-0.8-1.7-3.4-0.1-2.6,1.6C631.7-158.4,631.8-158.2,631.9-158z"/>
		<path d="M641.5-144.6c0.8,0.7,1.6,1.4,2.4,2c1.5,1.1,3.6-1,2.1-2.2c-0.1-0.1-0.3-0.2-0.4-0.3c-5-3.8-8.7-9.5-11.4-15.1    c-0.8-1.7-3.4-0.1-2.6,1.6c0.1,0.2,0.2,0.4,0.3,0.6C634.3-153.1,637.5-148.3,641.5-144.6z"/>
		<path d="M640.4-158.5c1.7,3.5,6.9,11.6,12.1,12.8c1.5,0.3,3.1,0.1,4.5-1.1c1.4-1.1-0.4-2.9-1.8-2.3c-0.1,0.1-0.3,0.1-0.4,0.2    c-3.5,2.9-17.1-13.7-12.6-19.8c0.2-0.3,0.4-0.5,0.6-0.7c1.5-1.3-0.7-3.3-2.2-2.1c-1.3,1.1-1.9,2.5-2.1,4    C638.1-164.5,639.2-161,640.4-158.5z"/>
		<path d="M621-144.6c-1.2,0.8-2.1,2.1-2.2,3.5c-0.3,3.1,3.1,6,0.9,9c-4.6,6.2-11.8-4.5-5.9-7.4c1.7-0.9,0.1-3.4-1.6-2.6    c-6.8,3.3-3.1,15,4,15c4,0,7.2-3.9,7.5-7.6c0.3-2.9-4.1-5.4-0.6-7.8c1.6-1.1,2.6-1.4,4,0.5c1,1.4,0.6,2.9-0.4,4    c-1.3,1.4,0.8,3.5,2.2,2.1c2.5-2.6,2.2-5.9,0.1-8.5C626.8-147.3,623.7-146.4,621-144.6z"/>
		<path d="M603.1-307c-0.5-0.5-0.7-1.1-0.5-1.8c3.5-10.5,10.1-20.3,18.3-27.8c0.4-0.3,0.8-0.4,1.1-0.4c4.1-0.6,8.3,2.5,11.6,4.6    c3.8,2.4,7.8,4.7,11.4,7.3c7.1,5.1,16.1,12.4,19.1,21.3c4.4-1.8,10.5,1.4,13.2,4.8c3.7,4.4-1.7,12.1-4.2,15.6    c-3.8,5.4-7,10.9-14.6,8.8c-4.6-1.2-7.4-5.5-7.4-10c-1.9,0.5-4,0.5-5.8,0.4c-6.8-0.3-13-2.1-18.9-5.5    C618.2-294.4,610.3-300.4,603.1-307z M605.8-308.6c5.7,5.1,11.8,9.9,18.2,14c5.6,3.6,11.2,6.5,17.9,7.3c2.8,0.3,7.6,1.1,10.2-0.7    c0.1-0.1,0.2-0.1,0.3-0.1c-0.4,1-0.7,1.9-1,2.9c-0.5,1.8,2.2,3,2.8,1.2c0-0.2,0.1-0.3,0.2-0.5c0.1,2.4,1.2,4.9,3,6.3    c0.2,1.5,1,2.9,2.6,3.8c1.5,0.9,2.6-1.4,1.5-2.5c0.3,0,0.7-0.1,1.1-0.1c4.4-0.8,5.8-4.6,8.1-7.8c1.9-2.7,4.3-5.9,4.7-9.2    c0.1-0.7,0.1-1.3-0.1-1.9c0.3,0.1,0.6,0.2,0.9,0.4c1.7,0.9,2.8-1.8,1.2-2.8c-1.5-0.8-3-0.9-4.5-0.6c-0.8-0.5-1.8-0.9-2.8-1.4    c-1.7-0.7-4-1.8-5.6-0.2c1.3-1.4-1-3.2-2.4-1.8c-0.2,0.2-0.3,0.3-0.5,0.5c-2.1-8.2-11.6-16.3-18.5-20.8c-3.2-2.1-6.4-4.2-9.6-6.2    c-2.9-1.8-7.3-5.5-11.1-5.1C615.1-327.1,609.1-318.1,605.8-308.6z"/>
		<path d="M651.4-285.2c-0.5,1.8,2.2,3,2.8,1.2c0-0.2,0.1-0.3,0.2-0.5c1.9-6,5.8-11.4,10.1-15.9c1.3-1.4-1-3.2-2.4-1.8    c-0.2,0.2-0.3,0.3-0.5,0.5c-3.7,3.9-7.1,8.6-9.2,13.7C652-287.2,651.7-286.2,651.4-285.2z"/>
		<path d="M665.1-294c-2.7,2.9-8.5,10.6-7.7,15.8c0.2,1.5,1,2.9,2.6,3.8c1.5,0.9,2.6-1.4,1.5-2.5c-0.1-0.1-0.2-0.2-0.3-0.3    c-3.9-2.3,6.9-20.8,14.1-18.8c0.3,0.1,0.6,0.2,0.9,0.4c1.7,0.9,2.8-1.8,1.2-2.8c-1.5-0.8-3-0.9-4.5-0.6    C669.8-298.4,667-296,665.1-294z"/>
		<path d="M636.9-301.3c2.8-0.7,3.6-5.8,7.1-3.3c1.6,1.1,2.2,1.9,0.9,4c-0.9,1.4-2.6,1.6-3.9,1c-1.8-0.8-2.9,2-1.2,2.8    c3.3,1.4,6.2,0,8-2.9c2-3.1,0-5.8-2.7-7.6c-1.1-0.8-2.7-1.2-4.1-0.8c-3.1,0.8-4.5,5-8.1,4c-7.4-2.1,0.1-12.6,4.8-8.1    c1.4,1.3,3.2-1.1,1.8-2.4c-5.5-5.2-15.1,2.3-12.6,9C628.5-301.9,633.3-300.4,636.9-301.3z"/>
		<path d="M570.1-247.1c-0.2-8.7,24.8,0.6,28.3,1.7c20,6.2,40.6,9.9,61.1,14.3c20.5,4.4,40.9,8.9,61.2,13.8    c22,5.3,44.1,10.6,66.2,15.9c0.3,0,0.5,0.1,0.7,0.4c0.2,0.2,0.3,0.5,0.3,0.7c1,6.7-1.2,13.7-4.6,19.3c-3.6,5.9-9,8.3-15.7,8.8    c-10.6,0.8-21.8-1.3-32-4.2c-8.6-2.5-17.8-3.6-26.5-5.5c-14.1-3.1-28.5-6.3-42-11.4c-6.5-2.4-12-5.7-14.2-12.8    c-1.5-5-0.7-11.1,1.2-16.1c-20.9-4-41.8-8-62.7-12.2C584-235.9,570.4-237.3,570.1-247.1z M572.8-245.6c0.7,3.5,6,5.8,9,6.6    c9.2,2.5,18.8,3.9,28.2,5.7c15.4,3,30.8,6,46.2,9c0.6,0.1,1.1,1,0.8,1.6c-2,4.4-2.8,9.6-2.1,14.4c1.1,7.1,6.8,10.3,12.8,12.6    c13.5,5.2,27.9,8.3,42,11.4c8.8,2,17.7,3.8,26.5,5.5c11.1,2.1,21.9,5.5,33.4,3.8c10.8-1.5,16.9-13.7,15.7-24.1    c-42.2-10.1-84.3-20.4-126.7-29.6c-20.5-4.4-41.1-8.1-61.1-14.3c-6.6-2.1-13.3-4.2-20.2-5C575-248.3,572.2-248.9,572.8-245.6z"/>
		<path d="M709.1-242.5c1.5-0.8,0.3-3-1.2-2.3c-3.5,1.9-6.5,0.3-6-4c0.4-3.7,2-8,6.6-7.5c9.6,1.1,8,11.6,5.3,18.1    c-1.8,4.4-5.5,9.7-1.8,14.1c2,2.4,4.8,4.1,7.7,5.2c1.6,0.6,2.3-1.9,0.8-2.4c-2.2-0.8-4.6-2.1-6.1-3.9c-3.5-4.2,1.4-10.3,2.8-14.6    c2.2-6.7,2.4-16.1-6-18.5c-7-2-12.3,3.4-11.9,10.5C699.6-242.1,704.1-239.9,709.1-242.5z"/>
		<path d="M720.7-228.5c9.6-2.7,8-19.1,7-25.9c-1.1-8.4-4.3-17.7-3.6-26.2c0.3-3.6,2.1-8.3,6.2-9.1c3.9-0.8,7.4,2.6,6.8,6.5    c-0.2,1.6,2.3,1.7,2.6,0.1c0.8-6-5.3-10.8-10.9-8.8c-6.6,2.4-7.6,9.9-7.1,15.9c0.9,10.8,4.8,21.4,4.1,32.4    c-0.2,3.8-1.3,11.4-5.7,12.6C718.5-230.6,719.1-228.1,720.7-228.5z"/>
		<path d="M732.6-250c0.6,3.4,0.7,6.9,1.4,10.2c0.6,2.9,2,5.4,2,8.4c0,4.6-0.4,10.9-6.2,11.5c-1.7,0.2-5.1-0.5-5.1-0.5    c-1.6-0.5-2.4,1.9-0.8,2.4c2.4,0.8,6.1,1.1,8.7-0.1c5.6-2.4,6.2-8.9,5.9-14.3c-0.1-2.2-0.9-4.1-1.6-6.2c-0.7-2.3-0.5-4.6-0.9-7    c-1.3-7.5-3.3-15.2,1.5-22c5.1-7.3,12.4-8.2,19.4-2.9c4.2,3.2,7.7,7,6.8,12.7c-1.2,7.2-10.9,11.4-17,6.7    c-2.9-2.2-1.8-10.9,2.7-9.3c1.5,0.6,2.3-1.9,0.8-2.4c-1-0.4-2-0.4-3,0c-3.8,1.5-5.7,6.4-4.6,10.2c1.8,6.2,11,6.4,15.9,4.8    c5.6-1.7,8.4-7.7,7.9-13.2c-0.6-5.6-4.7-9.8-9.4-12.6c-5.6-3.5-12.8-4.6-18,0.4C732.4-266.8,730.9-258.6,732.6-250z"/>
		<path d="M724.1-220.6C724-220.6,724-220.6,724.1-220.6L724.1-220.6z"/>
		<path d="M724.2-220.6C724.2-220.6,724.1-220.6,724.2-220.6C724.1-220.6,724.2-220.6,724.2-220.6z"/>
		<path d="M724.2-220.6C724.2-220.6,724.2-220.6,724.2-220.6C724.2-220.6,724.2-220.6,724.2-220.6z"/>
		<path d="M724.4-220.5c0,0-0.1,0-0.1,0C724.3-220.5,724.3-220.5,724.4-220.5z"/>
		<path d="M724.5-220.5c0,0-0.1,0-0.1,0C724.4-220.5,724.4-220.5,724.5-220.5z"/>
		<path d="M724.8-220.4c-0.1,0-0.1,0-0.2-0.1C724.7-220.4,724.8-220.4,724.8-220.4z"/>
		<path d="M724.6-220.5C724.5-220.5,724.5-220.5,724.6-220.5C724.5-220.5,724.5-220.5,724.6-220.5z"/>
		<path d="M747.9-182.7c-3.3-3.5-9.6-10.5-7.1-15.8c2.9-6.1,9-4.5,11.3,0.7c4.2-3.2,9.9-4.4,10.8,2.4c1,7.8-7.1,12.1-13.7,13.1    C748.6-182.2,748.2-182.3,747.9-182.7C747.9-182.6,747.9-182.7,747.9-182.7z M743.8-192.8c1.3,2.9,3.4,5.6,5.5,7.9    c3.8-0.7,7.8-2.4,10.1-5.6c1.2-1.8,1.3-4.5,0.5-6.5c-0.7-1.6-2.8-0.7-3.9-0.2c-1.3,0.6-2.6,1.5-3.7,2.4c-0.7,0.6-1.9,0.3-2.1-0.7    c-0.5-2-1.8-4-3.8-4.7C742.5-201.7,743-194.6,743.8-192.8z"/>
		<path d="M709-204.6c0.9-3,4.4-5.8,7.6-5.1c2.1,0.5,3.4,3.1,4.2,5.1c3.6-2,9.8-4.9,10.9,0.7c1.4,7.5-6.8,13.4-13.1,14.9    c-0.4,0.1-0.8,0-1-0.2c-0.1,0-0.2-0.1-0.2-0.2C713.7-192.8,707.4-199,709-204.6z M712.2-199.8c1.5,3,3.9,5.8,6.4,8.2    c4.4-1.2,8.6-4.2,10.1-8.6c2.5-7.3-5.3-3.2-7.8-1.4c-0.7,0.5-1.9,0.4-2.1-0.7c-0.4-1.8-1.2-4-3-4.8c-1.8-0.8-3.5,2.1-4.2,3.2    C710.7-202.8,711.7-200.9,712.2-199.8z"/>
		<path d="M678-212.4c2.9-7.5,8.6-3.9,11.5,0.9c3.9-3.2,10.4-3.6,10.5,3.1c0.1,6.6-7.7,10.3-12.9,12.4c0,0,0,0-0.1,0    c-0.3,0.2-0.8,0.2-1.2-0.1C680.5-199.5,675.4-205.8,678-212.4z M679.7-208.7c-0.2,4,3.7,7.9,6.9,10.2c2.7-1.1,5.3-2.6,7.6-4.3    c2.4-1.8,4.7-4.8,2.5-7.8c-1.5-2.1-5.5,0.8-6.5,2c-0.6,0.7-1.8,0.8-2.2-0.1c-0.6-1.3-1.4-2.6-2.3-3.7    C682.7-216.3,680-212.4,679.7-208.7z"/>
		<path d="M784.7-318.1c0,0,0.1-0.1,0.1-0.1C784.8-318.2,784.8-318.1,784.7-318.1z"/>
		<path d="M784.3-317c0.2,0.8,1.3,1.4,2.2,0.7c0.8-0.7,1.6-1.3,2.5-1.9c6.1,0.4,12.2,0.8,18.2,1.1c6.1,0.3,12.1-0.7,18-2.1    c1.2,0.6,2.4,1.2,3.6,1.9c1.4,0.8,2.7-1.3,1.3-2.2c-0.4-0.2-0.8-0.5-1.2-0.7c0,0,0.1,0,0.1,0c0.9-0.2,1.5,0.4,1.6,1.2    c0.2,1.7,0.3,3.5,0.4,5.4c-0.5,0.5-1,1.1-1.5,1.7c-0.9,1.2,0.5,2.8,1.5,2c0,0.7,0,1.4-0.1,2.1c-1.3,0.7-2.3,1.7-2.7,2.9    c-0.5,1.5,1.8,2.2,2.4,0.8c-0.2,1.2-0.4,2.4-0.6,3.6c-0.5-0.1-0.9-0.3-1.3-0.4c-1.5-0.5-2.2,1.9-0.7,2.4c0.4,0.1,0.8,0.3,1.3,0.4    c-0.2,0.8-0.5,1.5-0.8,2.2c-0.3-0.2-0.6-0.3-0.9-0.5c-1.4-0.9-2.7,1.3-1.3,2.2c0.4,0.2,0.8,0.5,1.2,0.7c-1.1,2.3-2.3,4.6-3.7,6.7    c-0.2,0.4-0.5,0.8-0.8,1.2c2.2,2.4,4.7,5.1,6,8c0.3,0.8,0.1,1.6-0.8,1.9c-10.3,3.6-22,4.6-32.8,3.3c-0.8,0-1.6-0.8-1.3-1.7    c0-0.2,0.1-0.4,0.2-0.5c1.5-2.9,3-5.9,4.5-8.8C787.3-289.7,783.5-304.9,784.3-317z M786.7-315.8c-0.5,11.4,3.2,25.4,14.4,30.7    c0.2,0.1,0.4,0.3,0.5,0.5c-0.5,0-0.9-0.1-1.4-0.1c-1.6-0.2-1.6,2.3,0,2.5c0.2,0,0.5,0,0.7,0.1c-1.3,2.4-2.5,4.9-3.8,7.3    c9.6,0.9,19.6,0,28.8-2.9c-1.4-2.3-3.4-4.5-5.2-6.5c0.2-0.1,0.5-0.2,0.7-0.2c1.5-0.6,0.9-3-0.7-2.4c-0.2,0.1-0.5,0.1-0.7,0.2    c0.2-0.2,0.4-0.3,0.6-0.4c0.3-0.3,0.5-0.7,0.8-1.1c0.9-1.5,1.8-3,2.6-4.6c2.1-3.9,3.3-7.9,3.7-12.3c0.4-4.1,0.5-8.3,0.2-12.4    c-6.9,1.8-13.8,3.1-21,2.8C800.3-314.9,793.5-315.3,786.7-315.8z"/>
		<path d="M812.7-323c4.3,0.7,8.5,2,12.4,3.9c1.2,0.6,2.4,1.2,3.6,1.9c1.4,0.8,2.7-1.3,1.3-2.2c-0.4-0.2-0.8-0.5-1.2-0.7    c-5.1-2.8-10.8-4.8-16.5-5.5C812.2-324.7,812.4-323.8,812.7-323z"/>
		<path d="M803.9-323.4c2-0.2,4.1-0.2,6.2,0c-0.2-0.8-0.3-1.7-0.3-2.5c-2-0.1-4-0.1-6,0C803.7-325,803.7-324.2,803.9-323.4z"/>
		<path d="M786.4-316.2c0.8-0.7,1.6-1.3,2.5-1.9c3.8-2.7,8.1-4.2,12.5-4.9c-0.1-0.8-0.2-1.7-0.1-2.5c-5.9,0.9-11.6,3.2-16.4,7.4    c0,0-0.1,0.1-0.1,0.1c0,0,0,0-0.1,0.1c-0.4,0.3-0.5,0.7-0.4,1.1C784.5-316.1,785.6-315.5,786.4-316.2z"/>
		<path d="M829.4-311.9c-0.9,1.2,0.5,2.8,1.5,2c0.1-0.1,0.2-0.1,0.3-0.2c1.3-1.7,3.1-3.2,5.1-4c5.1-2.1,8.4,4.7,9.3,8.5    c0.9,3.4,0.5,7.5-2.9,9.1c-4.4,2.1-9.8,2.9-14.3,0.7c-0.3-0.2-0.6-0.3-0.9-0.5c-1.4-0.9-2.7,1.3-1.3,2.2c0.4,0.2,0.8,0.5,1.2,0.7    c5,2.4,10.8,1.7,15.8-0.5c4.4-1.9,5.7-5.8,5.1-10.5c-0.7-4.7-3.8-12.2-9.5-12.5c-3-0.2-5.8,1.3-8,3.4    C830.4-313,829.9-312.4,829.4-311.9z"/>
		<path d="M839.9-302.4c0.4-3.4-1.6-6.9-5.3-6.6c-1.2,0.1-2.6,0.5-3.8,1.3c-1.3,0.7-2.3,1.7-2.7,2.9c-0.5,1.5,1.8,2.2,2.4,0.8    c0,0,0-0.1,0-0.1c0.4-1.2,3-2.1,4.2-2.4c2.6-0.5,3.3,3.3,2.4,5.1c-1.1,2.2-4.8,1.6-7.2,0.9c-0.5-0.1-0.9-0.3-1.3-0.4    c-1.5-0.5-2.2,1.9-0.7,2.4c0.4,0.1,0.8,0.3,1.3,0.4C833.5-296.9,839.2-297,839.9-302.4z"/>
		<path d="M801.6-284.5c-0.5,0-0.9-0.1-1.4-0.1c-1.6-0.2-1.6,2.3,0,2.5c0.2,0,0.5,0,0.7,0.1c6.6,0.7,13.6,0.1,19.8-2.1    c0.2-0.1,0.5-0.2,0.7-0.2c1.5-0.6,0.9-3-0.7-2.4c-0.2,0.1-0.5,0.1-0.7,0.2C814.3-284.5,807.8-284,801.6-284.5z"/>
		<path d="M801.4-323.1c0.2,1.1,0.5,2.2,1.1,3.4c0.7,1.5,2.9,0.2,2.2-1.3c-0.4-0.8-0.7-1.6-0.8-2.4c-0.2-0.8-0.2-1.7-0.1-2.5    c0.4-6.5,6.4-12.7,2.1-19.2c-1.3-2-4.1-3.7-6.6-3.2c-3.5,0.7-4.8,4-5.3,7.2c-0.3,1.6,2.2,2.3,2.4,0.7c0.6-3.6,2.9-7.2,6.6-4.2    c2.5,2.1,2.4,5.3,1.5,8.1c-1.2,3.7-2.8,7.2-3,10.9C801.3-324.8,801.3-323.9,801.4-323.1z"/>
		<path d="M811.6-320.1c1.1,1.2,2.9-0.6,1.8-1.8c-0.3-0.3-0.5-0.7-0.7-1.1c-0.4-0.8-0.5-1.7-0.5-2.6c0-1.9,0.7-4,1.4-5.4    c0.9-2,2.4-4.1,4.8-4.1c3.5,0,3.9,5.5,0.2,4.5c-1.6-0.4-2.2,2-0.7,2.4c3.1,0.9,5.8-1.2,6-4.4c0.3-3.6-4.1-5.3-7-4.9    c-4.5,0.6-7.3,6.6-7.2,11.7c0,0.9,0.1,1.7,0.3,2.5C810.3-322.1,810.9-321,811.6-320.1z"/>
		<path d="M523-149.8c-0.7-0.2-1.2-1.1-0.7-1.9c0.1-0.2,0.2-0.3,0.4-0.4c2.1-2.3,4.3-4.6,6.4-6.9c-9-8.7-8.7-23.6-4.9-34.5    c0,0.8,0.8,1.7,1.8,1.2c0.9-0.4,1.8-0.8,2.7-1.1c5.5,1.9,11,3.8,16.5,5.6c5.6,1.8,11.3,2.4,17.1,2.6c1,0.9,1.9,1.7,2.8,2.7    c1.1,1.1,2.8-0.6,1.7-1.7c-0.3-0.3-0.6-0.6-0.9-0.9c0,0,0.1,0,0.1,0c0.8,0,1.3,0.8,1.2,1.5c-0.3,1.6-0.6,3.3-1,5    c-0.6,0.3-1.2,0.7-1.8,1.2c-1.1,0.8-0.2,2.7,0.9,2.3c-0.2,0.6-0.4,1.3-0.6,1.9c-1.3,0.4-2.6,1-3.3,2c-0.9,1.3,1.1,2.4,2,1.3    c-0.5,1.1-1,2.1-1.5,3.2c-0.4-0.2-0.8-0.5-1.1-0.7c-1.3-0.9-2.5,1.2-1.2,2.1c0.3,0.2,0.7,0.4,1.1,0.7c-0.4,0.6-0.8,1.3-1.3,1.9    c-0.3-0.2-0.5-0.5-0.7-0.7c-1.1-1.1-2.8,0.6-1.7,1.7c0.3,0.3,0.6,0.6,0.9,0.9c-1.6,1.9-3.3,3.6-5.1,5.2c-0.3,0.3-0.7,0.6-1.1,0.9    c1.4,2.8,3,5.8,3.5,8.8c0.1,0.8-0.3,1.5-1.2,1.5C543.6-143.8,532.6-145.8,523-149.8z M529.9-157.5c0.2,0.1,0.4,0.2,0.7,0.2    c-1.8,1.9-3.5,3.9-5.3,5.8c8.6,3.3,18.1,5,27.3,4.6c-0.7-2.5-2-5-3.2-7.3c0.2,0,0.5,0,0.7,0c1.5-0.1,1.5-2.6,0-2.4    c-0.2,0-0.5,0-0.7,0c0.2-0.1,0.4-0.2,0.7-0.2c0.3-0.2,0.7-0.5,1-0.8c1.2-1.1,2.4-2.3,3.6-3.5c2.9-3,5-6.5,6.5-10.4    c1.4-3.7,2.6-7.5,3.3-11.4c-6.8-0.1-13.5-0.7-20-2.8c-6.2-2-12.3-4.2-18.5-6.3c-3.3,10.4-3.5,24.2,5.5,31.9    c0.2,0.2,0.3,0.4,0.3,0.6c-0.4-0.2-0.9-0.3-1.3-0.5C529.1-160.4,528.5-158,529.9-157.5z"/>
		<path d="M524.8-194.5c0.1,0,0.1,0,0.2-0.1C524.9-194.5,524.9-194.5,524.8-194.5z"/>
		<path d="M551.8-191.9c3.8,1.7,7.3,4,10.4,6.7c1,0.9,1.9,1.7,2.8,2.7c1.1,1.1,2.8-0.6,1.7-1.7c-0.3-0.3-0.6-0.6-0.9-0.9    c-3.9-3.9-8.7-7.1-13.8-9.3C551.8-193.6,551.7-192.7,551.8-191.9z"/>
		<path d="M549.4-192.9c0-0.8,0.2-1.6,0.4-2.4c-1.8-0.6-3.7-1.2-5.6-1.5c-0.3,0.7-0.4,1.5-0.5,2.3    C545.7-194.1,547.6-193.6,549.4-192.9z"/>
		<path d="M525.9-192.3c0.9-0.4,1.8-0.8,2.7-1.1c4.2-1.5,8.5-1.9,12.8-1.4c0.1-0.8,0.3-1.6,0.5-2.3c-5.7-0.7-11.5,0-17,2.6    c-0.1,0-0.1,0-0.2,0.1c0,0-0.1,0-0.1,0c-0.4,0.2-0.6,0.5-0.6,0.9C524.1-192.7,524.9-191.9,525.9-192.3z"/>
		<path d="M565.2-175.2c0.1,0,0.2-0.1,0.3-0.2c1.7-1.2,3.7-2.2,5.7-2.4c5.2-0.6,6.5,6.4,6.4,10.2c-0.1,3.4-1.4,7-5,7.6    c-4.6,0.8-9.8,0.2-13.3-3c-0.3-0.2-0.5-0.5-0.7-0.7c-1.1-1.1-2.8,0.6-1.7,1.7c0.3,0.3,0.6,0.6,0.9,0.9c4,3.5,9.5,4.3,14.7,3.5    c4.5-0.7,6.7-3.9,7.3-8.4c0.6-4.5-0.4-12.2-5.6-13.9c-2.7-0.9-5.7-0.2-8.2,1.1c-0.6,0.3-1.2,0.7-1.8,1.2    C563.2-176.6,564.1-174.7,565.2-175.2z"/>
		<path d="M571.6-166c1.3-3,0.3-6.8-3.2-7.4c-1.1-0.2-2.5-0.2-3.8,0.2c-1.3,0.4-2.6,1-3.3,2c-0.9,1.3,1.1,2.4,2,1.3c0,0,0,0,0.1-0.1    c0.7-1,3.3-1.2,4.4-1.1c2.6,0.2,2.2,3.9,0.9,5.3c-1.5,1.7-4.8,0.2-6.9-1c-0.4-0.2-0.8-0.5-1.1-0.7c-1.3-0.9-2.5,1.2-1.2,2.1    c0.3,0.2,0.7,0.4,1.1,0.7C564.3-162.6,569.6-161.3,571.6-166z"/>
		<path d="M529.9-157.5c0.2,0.1,0.4,0.2,0.7,0.2c5.9,2.3,12.5,3.6,18.8,3.1c0.2,0,0.5,0,0.7,0c1.5-0.1,1.5-2.6,0-2.4    c-0.2,0-0.5,0-0.7,0c-5.9,0.4-12-0.7-17.5-2.8c-0.4-0.2-0.9-0.3-1.3-0.5C529.1-160.4,528.5-158,529.9-157.5z"/>
		<path d="M541.6-191.5c0.3,1.5,2.6,0.9,2.3-0.6c-0.2-0.8-0.2-1.6-0.1-2.4c0.1-0.8,0.2-1.6,0.5-2.3c2-5.9,9.1-10.1,6.8-17.1    c-0.7-2.2-2.8-4.5-5.3-4.6c-3.4-0.2-5.4,2.4-6.7,5.2c-0.6,1.4,1.4,2.6,2.1,1.2c1.5-3.1,4.5-5.9,7.1-2.2c1.8,2.6,0.8,5.5-0.7,7.8    c-2,3.1-4.4,5.9-5.5,9.3c-0.2,0.8-0.4,1.5-0.5,2.3C541.3-193.8,541.3-192.7,541.6-191.5z"/>
		<path d="M550.1-189.5c0.7,1.4,2.8,0.2,2.1-1.2c-0.2-0.4-0.3-0.8-0.4-1.2c-0.1-0.8,0-1.7,0.2-2.5c0.5-1.8,1.7-3.5,2.6-4.6    c1.3-1.6,3.3-3.1,5.5-2.6c3.2,0.8,2.2,6.1-1,4.1c-1.3-0.8-2.6,1.3-1.2,2.1c2.7,1.6,5.6,0.4,6.6-2.5c1.2-3.2-2.4-5.9-5.2-6.3    c-4.3-0.6-8.4,4.2-9.6,8.9c-0.2,0.8-0.3,1.6-0.4,2.4C549.4-191.7,549.6-190.5,550.1-189.5z"/>
	</g>
</pattern>


</svg>
